<svg id="svg" version="1.1" xmlns="http://www.w3.org/2000/svg" xmlns:xlink="http://www.w3.org/1999/xlink" width="400" height="210" viewBox="0, 0, 400,210"><g id="svgg"><path id="path0" d="M160.399 33.957 C 156.471 34.195,151.568 35.074,149.475 35.915 C 149.244 36.008,148.629 36.250,148.109 36.452 C 143.471 38.255,139.885 40.880,136.060 45.273 C 135.158 46.309,135.084 46.405,135.084 46.547 C 135.084 46.622,134.800 47.041,134.454 47.479 C 134.107 47.917,133.824 48.371,133.824 48.490 C 133.824 48.608,133.747 48.736,133.653 48.775 C 132.977 49.051,130.230 56.101,129.941 58.298 C 129.865 58.876,129.721 59.538,129.620 59.769 C 129.050 61.078,128.450 84.874,128.987 84.874 C 129.105 84.874,129.202 85.110,129.202 85.399 C 129.202 85.701,129.323 85.924,129.486 85.924 C 129.888 85.924,130.882 86.890,130.882 87.280 C 130.882 87.459,131.010 87.605,131.167 87.605 C 131.568 87.605,132.563 88.571,132.563 88.961 C 132.563 89.139,132.691 89.286,132.847 89.286 C 133.879 89.286,134.340 90.315,134.582 93.158 C 134.795 95.658,134.818 95.081,134.845 86.683 C 134.872 78.168,134.902 77.441,135.242 77.183 C 135.524 76.969,136.810 76.903,140.762 76.897 C 146.904 76.889,146.849 76.873,146.849 78.751 C 146.849 80.491,146.924 80.462,142.395 80.462 L 138.445 80.462 138.445 83.042 L 138.445 85.622 142.384 85.686 C 146.928 85.759,146.849 85.727,146.849 87.492 C 146.849 89.251,146.758 89.286,142.112 89.286 L 138.445 89.286 138.445 94.258 C 138.445 96.992,138.516 99.158,138.603 99.070 C 138.690 98.982,138.767 98.611,138.774 98.247 C 138.822 95.865,138.890 95.168,139.076 95.168 C 139.191 95.168,139.286 95.310,139.286 95.483 C 139.286 95.657,139.421 95.798,139.587 95.798 C 139.752 95.798,139.945 95.979,140.015 96.199 C 140.085 96.419,140.280 96.653,140.449 96.718 C 140.618 96.783,140.756 96.980,140.756 97.157 C 140.756 97.334,140.903 97.479,141.081 97.479 C 141.471 97.479,142.437 98.474,142.437 98.875 C 142.437 99.032,142.583 99.160,142.762 99.160 C 143.152 99.160,144.118 100.154,144.118 100.556 C 144.118 100.712,144.264 100.840,144.443 100.840 C 144.833 100.840,145.798 101.835,145.798 102.237 C 145.798 102.393,145.940 102.521,146.113 102.521 C 146.287 102.521,146.429 102.609,146.429 102.717 C 146.429 102.825,146.617 102.973,146.848 103.046 C 147.079 103.119,147.326 103.409,147.396 103.690 C 147.467 103.972,147.656 104.202,147.817 104.202 C 147.978 104.202,148.109 104.290,148.109 104.398 C 148.109 104.505,148.293 104.652,148.519 104.723 C 148.744 104.795,148.993 105.057,149.072 105.306 C 149.230 105.806,149.662 106.303,149.938 106.303 C 150.168 106.303,150.840 107.085,150.840 107.351 C 150.840 107.463,151.073 107.613,151.358 107.685 C 151.643 107.756,151.931 107.990,151.999 108.203 C 152.067 108.417,152.307 108.650,152.532 108.722 C 152.757 108.793,152.941 108.987,152.941 109.153 C 152.941 109.318,153.077 109.454,153.242 109.454 C 153.408 109.454,153.602 109.638,153.673 109.863 C 153.745 110.088,153.987 110.331,154.212 110.403 C 154.438 110.474,154.622 110.668,154.622 110.833 C 154.622 110.999,154.757 111.134,154.923 111.134 C 155.088 111.134,155.281 111.315,155.351 111.535 C 155.421 111.756,155.616 111.989,155.785 112.054 C 155.954 112.119,156.092 112.316,156.092 112.493 C 156.092 112.670,156.239 112.815,156.418 112.815 C 156.807 112.815,157.773 113.810,157.773 114.211 C 157.773 114.368,157.919 114.496,158.098 114.496 C 158.488 114.496,159.454 115.491,159.454 115.892 C 159.454 116.048,159.596 116.176,159.769 116.176 C 159.942 116.176,160.084 116.265,160.084 116.372 C 160.084 116.480,160.273 116.628,160.504 116.702 C 160.735 116.775,160.981 117.065,161.052 117.346 C 161.122 117.627,161.312 117.857,161.472 117.857 C 161.633 117.857,161.765 117.945,161.765 118.053 C 161.765 118.161,161.954 118.309,162.184 118.382 C 162.415 118.455,162.662 118.745,162.732 119.027 C 162.803 119.308,162.992 119.538,163.153 119.538 C 163.314 119.538,163.445 119.626,163.445 119.734 C 163.445 119.842,163.634 119.990,163.865 120.063 C 164.096 120.136,164.342 120.426,164.413 120.707 C 164.484 120.988,164.633 121.218,164.745 121.218 C 165.022 121.218,166.176 122.391,166.176 122.673 C 166.176 122.797,166.278 122.899,166.403 122.899 C 166.684 122.899,167.857 124.054,167.857 124.331 C 167.857 124.443,168.093 124.594,168.382 124.666 C 168.671 124.739,168.908 124.891,168.908 125.004 C 168.908 125.117,169.049 125.210,169.223 125.210 C 169.396 125.210,169.538 125.312,169.538 125.436 C 169.538 125.561,169.798 125.936,170.116 126.270 C 171.009 127.209,171.218 127.485,171.218 127.722 C 171.218 127.843,171.346 127.941,171.503 127.941 C 171.904 127.941,172.899 128.907,172.899 129.297 C 172.899 129.476,173.027 129.622,173.184 129.622 C 173.585 129.622,174.580 130.588,174.580 130.977 C 174.580 131.156,174.725 131.303,174.902 131.303 C 175.078 131.303,175.276 131.441,175.341 131.610 C 175.406 131.779,175.639 131.974,175.860 132.044 C 176.080 132.114,176.261 132.354,176.261 132.577 C 176.261 132.802,176.404 132.983,176.582 132.983 C 176.759 132.983,176.957 133.121,177.022 133.290 C 177.087 133.459,177.320 133.655,177.540 133.725 C 177.761 133.795,177.941 133.987,177.941 134.153 C 177.941 134.318,178.077 134.454,178.242 134.454 C 178.408 134.454,178.602 134.638,178.673 134.863 C 178.745 135.088,178.987 135.331,179.212 135.403 C 179.438 135.474,179.622 135.668,179.622 135.833 C 179.622 135.999,179.757 136.134,179.923 136.134 C 180.088 136.134,180.284 136.324,180.357 136.555 C 180.430 136.786,180.582 136.975,180.693 136.975 C 180.804 136.975,180.958 137.140,181.035 137.342 C 181.184 137.736,181.617 138.235,181.810 138.235 C 182.011 138.235,182.773 138.949,182.773 139.137 C 182.773 139.413,183.270 139.845,183.770 140.004 C 184.019 140.083,184.281 140.332,184.352 140.557 C 184.424 140.782,184.570 140.966,184.678 140.966 C 184.786 140.966,184.874 141.098,184.874 141.259 C 184.874 141.420,185.104 141.609,185.385 141.679 C 185.666 141.750,185.956 141.997,186.030 142.227 C 186.103 142.458,186.251 142.647,186.359 142.647 C 186.466 142.647,186.555 142.779,186.555 142.939 C 186.555 143.100,186.785 143.289,187.066 143.360 C 187.347 143.431,187.637 143.677,187.710 143.908 C 187.783 144.139,187.932 144.328,188.039 144.328 C 188.147 144.328,188.235 144.470,188.235 144.643 C 188.235 144.816,188.363 144.958,188.520 144.958 C 188.921 144.958,189.916 145.924,189.916 146.313 C 189.916 146.492,190.061 146.639,190.238 146.639 C 190.415 146.639,190.612 146.777,190.677 146.946 C 190.742 147.115,190.975 147.310,191.196 147.380 C 191.416 147.450,191.597 147.690,191.597 147.913 C 191.597 148.138,191.740 148.319,191.918 148.319 C 192.095 148.319,192.293 148.458,192.358 148.626 C 192.423 148.795,192.656 148.991,192.877 149.061 C 193.097 149.131,193.277 149.323,193.277 149.489 C 193.277 149.654,193.413 149.790,193.578 149.790 C 193.744 149.790,193.938 149.974,194.009 150.199 C 194.081 150.425,194.323 150.667,194.549 150.739 C 194.774 150.810,194.958 151.004,194.958 151.170 C 194.958 151.335,195.093 151.471,195.259 151.471 C 195.424 151.471,195.617 151.651,195.687 151.871 C 195.757 152.092,195.953 152.325,196.121 152.390 C 196.290 152.455,196.429 152.653,196.429 152.830 C 196.429 153.007,196.610 153.151,196.835 153.151 C 197.058 153.151,197.298 153.332,197.368 153.552 C 197.438 153.772,197.633 154.006,197.802 154.071 C 197.971 154.135,198.109 154.333,198.109 154.510 C 198.109 154.687,198.256 154.832,198.434 154.832 C 198.824 154.832,199.790 155.827,199.790 156.228 C 199.790 156.385,199.932 156.513,200.105 156.513 C 200.278 156.513,200.420 156.601,200.420 156.709 C 200.420 156.816,200.609 156.964,200.840 157.038 C 201.071 157.111,201.317 157.401,201.388 157.682 C 201.458 157.963,201.648 158.193,201.808 158.193 C 201.969 158.193,202.101 158.281,202.101 158.389 C 202.101 158.497,202.290 158.645,202.521 158.718 C 202.751 158.792,202.998 159.082,203.069 159.363 C 203.139 159.644,203.328 159.874,203.489 159.874 C 203.650 159.874,203.782 159.962,203.782 160.070 C 203.782 160.178,203.970 160.326,204.201 160.399 C 204.432 160.472,204.679 160.762,204.749 161.043 C 204.820 161.325,204.969 161.555,205.081 161.555 C 205.358 161.555,206.513 162.728,206.513 163.009 C 206.513 163.133,206.614 163.235,206.739 163.235 C 207.033 163.235,208.193 164.396,208.193 164.690 C 208.193 164.814,208.295 164.916,208.420 164.916 C 208.701 164.916,209.874 166.071,209.874 166.348 C 209.874 166.460,210.104 166.609,210.385 166.679 C 210.666 166.750,210.956 166.997,211.030 167.227 C 211.103 167.458,211.251 167.647,211.359 167.647 C 211.466 167.647,211.555 167.779,211.555 167.939 C 211.555 168.100,211.785 168.289,212.066 168.360 C 212.347 168.431,212.637 168.677,212.710 168.908 C 212.783 169.139,212.921 169.328,213.015 169.328 C 213.109 169.328,213.236 169.517,213.296 169.748 C 213.357 169.979,213.557 170.168,213.741 170.168 C 214.173 170.168,214.916 170.911,214.916 171.343 C 214.916 171.527,215.105 171.727,215.336 171.788 C 215.567 171.848,215.756 171.975,215.756 172.069 C 215.756 172.163,215.945 172.301,216.176 172.374 C 216.407 172.447,216.653 172.737,216.724 173.018 C 216.795 173.299,216.984 173.529,217.145 173.529 C 217.305 173.529,217.437 173.618,217.437 173.725 C 217.437 173.833,217.626 173.981,217.857 174.054 C 218.087 174.128,218.334 174.418,218.405 174.699 C 218.475 174.980,218.665 175.210,218.825 175.210 C 219.608 175.210,218.990 175.616,218.120 175.673 C 217.571 175.709,221.376 175.822,226.576 175.923 C 238.821 176.160,245.985 175.786,248.214 174.792 C 248.445 174.689,248.962 174.540,249.363 174.460 C 249.763 174.381,250.236 174.242,250.413 174.152 C 250.590 174.061,251.208 173.824,251.786 173.624 C 252.948 173.222,254.751 172.363,255.882 171.672 C 256.287 171.424,256.759 171.157,256.933 171.077 C 260.627 169.373,266.860 161.852,268.568 157.038 C 268.773 156.460,269.019 155.798,269.115 155.567 C 269.735 154.078,270.411 150.976,270.831 147.689 C 271.332 143.773,271.238 63.360,270.730 60.714 C 269.982 56.821,269.729 55.839,268.931 53.719 C 265.047 43.402,256.853 36.773,245.063 34.409 L 242.752 33.946 202.101 33.920 C 179.743 33.905,160.977 33.922,160.399 33.957 M169.612 87.661 C 169.820 100.284,169.918 99.580,167.962 99.580 C 165.989 99.580,166.086 100.245,166.243 87.787 C 166.317 81.896,166.435 76.982,166.505 76.869 C 166.575 76.755,167.263 76.690,168.033 76.724 L 169.433 76.786 169.612 87.661 M174.740 87.920 C 174.802 100.515,174.935 99.580,173.074 99.580 C 171.265 99.580,171.340 100.135,171.495 87.787 C 171.569 81.896,171.687 76.982,171.757 76.869 C 171.827 76.755,172.515 76.690,173.285 76.724 L 174.685 76.786 174.740 87.920 M158.193 82.362 C 161.518 83.094,164.129 85.988,164.701 89.573 C 165.085 91.971,165.601 91.807,157.683 91.807 L 150.885 91.807 151.048 92.489 C 152.078 96.782,157.520 98.140,160.276 94.792 C 160.629 94.363,161.141 93.737,161.413 93.400 L 161.908 92.788 163.092 93.466 C 164.671 94.369,164.664 94.333,163.556 95.999 C 160.571 100.490,153.735 101.317,150.107 97.626 C 143.661 91.068,149.310 80.403,158.193 82.362 M186.739 82.348 C 192.273 83.398,195.397 89.688,192.951 94.858 C 189.988 101.121,181.416 101.633,177.666 95.771 C 173.507 89.269,179.157 80.910,186.739 82.348 M196.998 83.613 C 197.253 84.133,198.206 86.350,199.115 88.539 C 200.869 92.758,201.013 92.980,201.410 92.070 C 205.699 82.240,205.480 82.694,205.973 82.597 C 206.323 82.528,207.143 83.100,207.143 83.413 C 207.143 83.498,207.951 85.397,208.938 87.634 C 209.925 89.871,210.846 91.962,210.985 92.279 C 211.124 92.597,211.285 92.856,211.343 92.855 C 211.459 92.853,211.443 92.889,213.913 87.080 C 215.950 82.290,215.757 82.563,217.106 82.563 C 218.222 82.563,218.697 82.814,218.697 83.402 C 218.697 83.682,216.211 89.715,215.537 91.071 C 215.422 91.303,214.584 93.241,213.675 95.378 C 211.385 100.762,211.377 100.762,209.024 95.483 C 206.436 89.675,206.236 89.267,206.075 89.440 C 205.992 89.528,205.531 90.530,205.052 91.665 C 204.572 92.800,203.864 94.407,203.477 95.236 C 203.091 96.065,202.514 97.339,202.194 98.068 C 201.648 99.313,201.576 99.388,200.973 99.328 C 200.359 99.267,193.697 84.681,193.697 83.399 C 193.697 82.078,196.328 82.250,196.998 83.613 M229.391 85.178 C 229.715 85.346,230.277 85.822,230.641 86.236 L 231.303 86.989 231.319 96.698 C 231.328 102.038,231.404 108.487,231.487 111.029 L 231.639 115.651 232.569 117.431 C 235.171 122.411,239.132 124.378,245.366 123.785 C 258.934 122.495,261.550 104.464,248.707 100.763 C 246.941 100.253,245.378 100.295,245.378 100.851 C 245.378 102.752,242.521 104.574,240.450 103.994 C 236.255 102.820,235.792 95.097,239.791 93.015 C 241.984 91.873,250.205 92.557,253.987 94.196 C 259.920 96.767,263.931 102.851,264.712 110.466 C 266.309 126.030,247.111 137.487,233.223 129.258 C 229.325 126.949,226.386 123.295,224.509 118.423 L 223.845 116.702 223.782 101.922 C 223.710 85.290,223.581 86.625,225.370 85.491 C 226.486 84.783,228.346 84.638,229.391 85.178 M153.992 85.839 C 152.896 86.314,151.471 87.841,151.471 88.540 C 151.471 88.603,153.598 88.655,156.197 88.655 C 161.567 88.655,161.528 88.671,160.032 87.123 C 158.552 85.591,155.876 85.023,153.992 85.839 M182.861 85.903 C 177.528 88.325,179.250 96.639,185.084 96.639 C 190.013 96.639,192.363 90.593,188.832 86.996 C 187.383 85.520,184.761 85.040,182.861 85.903 M187.642 101.542 C 187.958 101.782,188.009 102.800,188.146 111.619 L 188.299 121.429 189.625 121.429 C 191.408 121.429,191.807 121.830,191.807 123.627 C 191.807 125.533,191.513 125.840,189.694 125.840 L 188.235 125.840 188.229 128.834 C 188.220 132.558,188.186 132.621,186.130 132.738 C 183.662 132.877,183.613 132.804,183.613 128.965 L 183.613 125.798 177.143 125.951 C 171.209 126.092,170.643 126.075,170.315 125.747 C 169.835 125.267,169.864 124.332,170.378 123.739 C 170.609 123.473,170.798 123.199,170.799 123.130 C 170.799 123.061,171.011 122.748,171.271 122.434 C 171.531 122.121,173.020 120.064,174.580 117.864 C 176.140 115.664,178.575 112.233,179.991 110.240 C 181.407 108.248,182.661 106.476,182.777 106.303 C 185.887 101.664,186.725 100.844,187.642 101.542 M197.989 102.431 C 198.280 102.722,198.319 103.972,198.319 113.002 C 198.319 119.435,198.404 123.698,198.546 124.469 C 199.579 130.055,207.930 130.450,209.772 125.000 C 209.869 124.711,210.003 119.532,210.069 113.490 C 210.206 100.932,209.965 102.109,212.405 102.104 C 214.683 102.099,214.496 101.111,214.496 113.120 C 214.495 124.289,214.418 125.357,213.442 127.633 C 209.857 135.998,196.517 134.903,194.224 126.056 C 193.805 124.439,193.746 102.766,194.160 102.353 C 194.554 101.959,197.579 102.021,197.989 102.431 M240.207 107.792 C 242.407 109.522,241.193 112.801,238.453 112.529 C 237.100 112.395,236.134 111.324,236.134 109.957 C 236.134 107.906,238.651 106.568,240.207 107.792 M251.506 108.131 C 253.240 109.866,251.843 112.784,249.397 112.534 C 247.145 112.305,246.286 109.596,247.975 108.048 C 249.035 107.076,250.485 107.110,251.506 108.131 M181.723 115.467 C 180.741 116.913,179.842 118.208,179.727 118.345 C 179.611 118.481,179.186 119.089,178.782 119.695 C 178.377 120.301,177.975 120.798,177.889 120.798 C 177.802 120.798,177.731 120.940,177.731 121.113 C 177.731 121.379,178.198 121.429,180.672 121.429 L 183.613 121.429 183.613 117.122 C 183.613 114.753,183.590 112.820,183.561 112.826 C 183.532 112.832,182.705 114.020,181.723 115.467 " stroke="none" fill="#6269c2" fill-rule="evenodd"></path><path id="path1" d="M0.000 105.042 L 0.000 210.084 200.000 210.084 L 400.000 210.084 400.000 105.042 L 400.000 0.000 200.000 0.000 L 0.000 0.000 0.000 105.042 M242.962 33.826 C 245.848 34.191,248.090 34.633,249.265 35.069 C 249.773 35.257,252.153 36.097,253.099 36.423 C 253.474 36.552,253.782 36.721,253.782 36.799 C 253.782 36.878,254.065 37.004,254.412 37.080 C 254.758 37.156,255.042 37.305,255.042 37.412 C 255.042 37.518,255.152 37.605,255.286 37.605 C 255.569 37.605,257.634 38.884,257.738 39.124 C 257.777 39.213,257.905 39.286,258.023 39.286 C 258.605 39.286,263.606 43.990,265.059 45.903 C 266.086 47.256,267.830 50.135,267.977 50.721 C 268.052 51.018,268.197 51.261,268.300 51.261 C 268.403 51.261,268.487 51.431,268.487 51.639 C 268.487 51.847,268.571 52.107,268.672 52.216 C 269.378 52.977,270.794 58.420,271.211 61.975 C 271.480 64.261,271.481 145.929,271.212 148.004 C 270.870 150.653,270.334 153.396,269.981 154.307 C 269.891 154.538,269.621 155.294,269.380 155.987 C 268.761 157.770,268.399 158.702,268.277 158.824 C 268.220 158.881,267.990 159.307,267.767 159.769 C 267.226 160.890,266.119 162.693,265.918 162.780 C 265.829 162.819,265.756 162.947,265.756 163.065 C 265.756 163.909,258.867 170.798,258.023 170.798 C 257.905 170.798,257.777 170.871,257.738 170.960 C 257.638 171.191,255.574 172.479,255.304 172.479 C 255.179 172.479,255.046 172.553,255.007 172.643 C 254.968 172.734,254.181 173.121,253.256 173.503 C 252.332 173.886,251.431 174.272,251.254 174.362 C 251.076 174.453,250.604 174.597,250.203 174.682 C 249.803 174.768,249.380 174.904,249.265 174.985 C 248.785 175.319,246.502 175.763,242.655 176.271 C 240.098 176.608,157.399 176.430,155.672 176.083 C 152.518 175.449,151.268 175.140,149.535 174.568 C 148.528 174.235,147.536 173.873,147.329 173.763 C 147.123 173.654,146.528 173.368,146.008 173.128 C 141.914 171.242,136.949 167.044,134.556 163.445 C 133.980 162.579,133.452 161.822,133.384 161.765 C 133.218 161.625,131.619 158.491,131.240 157.563 C 130.101 154.776,129.453 152.406,129.087 149.685 C 129.009 149.107,128.887 148.304,128.817 147.899 C 128.416 145.596,128.571 63.706,128.981 61.113 C 129.661 56.819,129.857 56.051,131.094 52.836 C 131.543 51.671,133.280 48.319,133.435 48.319 C 133.533 48.319,133.613 48.184,133.613 48.019 C 133.613 47.854,133.740 47.592,133.896 47.437 C 134.051 47.282,134.440 46.740,134.760 46.233 C 135.080 45.726,135.851 44.790,136.473 44.152 C 137.096 43.515,137.605 42.915,137.605 42.820 C 137.605 42.725,137.676 42.647,137.763 42.647 C 137.849 42.647,138.393 42.197,138.971 41.648 C 140.299 40.385,141.698 39.286,141.977 39.286 C 142.095 39.286,142.223 39.211,142.262 39.120 C 142.426 38.732,147.724 35.924,148.291 35.924 C 148.396 35.924,148.752 35.783,149.083 35.611 C 149.414 35.438,149.879 35.296,150.116 35.295 C 150.352 35.295,150.636 35.215,150.746 35.118 C 150.966 34.924,153.438 34.398,155.882 34.025 C 156.749 33.893,157.600 33.758,157.773 33.724 C 158.596 33.563,241.675 33.663,242.962 33.826 M166.807 88.025 L 166.807 98.950 167.962 98.950 L 169.118 98.950 169.118 88.025 L 169.118 77.101 167.962 77.101 L 166.807 77.101 166.807 88.025 M172.059 88.036 L 172.059 98.972 173.162 98.908 L 174.265 98.845 174.319 87.973 L 174.374 77.101 173.216 77.101 L 172.059 77.101 172.059 88.036 M135.504 88.235 L 135.504 98.950 136.656 98.950 L 137.808 98.950 137.864 93.855 L 137.920 88.761 142.080 88.704 L 146.239 88.647 146.176 87.443 L 146.113 86.239 142.017 86.134 L 137.920 86.029 137.861 83.210 C 137.829 81.660,137.883 80.311,137.980 80.213 C 138.078 80.115,139.854 80.024,141.926 80.011 C 146.476 79.982,146.218 80.064,146.218 78.654 L 146.218 77.521 140.861 77.521 L 135.504 77.521 135.504 88.235 M154.622 82.702 C 153.941 82.786,153.187 83.058,151.904 83.680 C 149.280 84.953,147.440 89.279,148.075 92.678 C 149.454 100.051,159.165 101.932,163.221 95.611 C 164.028 94.353,164.047 94.453,162.894 93.895 C 161.960 93.443,161.913 93.439,161.705 93.812 C 159.070 98.520,151.665 97.948,150.629 92.957 C 150.284 91.296,149.891 91.387,157.470 91.387 L 164.286 91.387 164.286 90.284 C 164.285 85.629,159.745 82.067,154.622 82.702 M183.718 82.700 C 179.274 83.375,175.992 88.091,176.895 92.503 C 178.942 102.504,193.277 101.204,193.277 91.018 C 193.277 85.759,188.863 81.918,183.718 82.700 M194.347 83.177 C 194.000 83.397,194.101 83.706,195.691 87.273 C 195.996 87.957,196.722 89.657,197.304 91.050 C 197.886 92.443,198.536 93.964,198.749 94.428 C 198.962 94.893,199.465 96.077,199.867 97.059 C 200.833 99.423,201.048 99.433,202.100 97.167 C 202.562 96.169,202.941 95.317,202.941 95.273 C 202.941 95.229,203.311 94.407,203.762 93.447 C 204.214 92.487,204.869 91.040,205.218 90.231 C 206.173 88.019,206.233 88.057,207.884 91.912 C 208.032 92.258,208.522 93.346,208.973 94.328 C 209.424 95.310,210.069 96.752,210.406 97.532 C 210.780 98.399,211.143 98.950,211.340 98.950 C 211.601 98.950,212.605 97.228,212.605 96.781 C 212.605 96.719,212.896 96.023,213.252 95.235 C 214.376 92.748,214.461 92.556,215.231 90.756 C 216.210 88.470,216.435 87.955,217.091 86.508 C 217.391 85.847,217.696 85.066,217.770 84.773 C 217.843 84.480,217.988 84.188,218.090 84.124 C 218.399 83.933,218.301 83.247,217.945 83.111 C 216.707 82.636,216.146 82.984,215.440 84.664 C 215.125 85.415,214.565 86.691,214.197 87.500 C 213.829 88.309,213.108 89.986,212.594 91.227 C 211.764 93.232,210.924 94.270,210.924 93.292 C 210.924 93.184,210.633 92.452,210.277 91.664 C 209.622 90.214,209.514 89.973,208.511 87.710 C 208.203 87.017,207.824 86.166,207.667 85.819 C 207.511 85.472,207.195 84.750,206.965 84.214 C 206.299 82.660,205.994 82.684,205.268 84.349 C 205.015 84.926,204.725 85.588,204.622 85.819 C 204.520 86.050,204.186 86.807,203.880 87.500 C 203.065 89.350,202.846 89.846,202.026 91.702 C 201.193 93.585,200.869 93.812,200.443 92.810 C 200.283 92.431,199.928 91.623,199.655 91.013 C 199.383 90.403,199.160 89.854,199.160 89.793 C 199.160 89.732,198.964 89.239,198.724 88.696 C 198.485 88.154,198.164 87.426,198.011 87.080 C 197.857 86.733,197.473 85.788,197.157 84.979 C 196.368 82.961,195.533 82.426,194.347 83.177 M157.584 85.099 C 159.760 85.784,161.881 87.923,161.463 89.012 C 161.294 89.451,151.084 89.407,150.915 88.967 C 150.138 86.942,154.817 84.228,157.584 85.099 M186.706 85.191 C 190.791 86.404,192.323 91.971,189.456 95.188 C 186.746 98.228,181.592 97.490,179.836 93.810 C 177.548 89.016,181.766 83.724,186.706 85.191 M226.440 85.414 C 225.823 85.604,225.219 85.992,224.801 86.469 L 224.139 87.223 224.206 101.858 L 224.273 116.492 224.851 118.096 C 227.991 126.820,234.547 131.441,243.697 131.381 C 259.547 131.277,269.204 115.880,261.921 102.325 C 259.027 96.937,255.939 94.722,249.265 93.242 C 247.031 92.746,240.856 92.884,239.759 93.453 C 237.275 94.741,236.688 100.499,238.827 102.589 C 240.841 104.555,244.611 103.512,245.034 100.872 L 245.173 100.000 246.404 100.000 C 250.930 100.000,255.493 103.410,256.946 107.878 C 257.327 109.048,257.335 113.926,256.959 115.021 C 254.791 121.323,250.587 124.219,243.592 124.228 C 237.656 124.236,234.651 122.463,232.076 117.437 C 231.034 115.403,231.020 115.204,230.895 100.735 C 230.762 85.326,230.886 86.367,229.086 85.521 C 228.011 85.016,227.765 85.006,226.440 85.414 M185.244 103.613 C 184.602 104.572,183.364 106.350,182.491 107.563 C 181.619 108.776,180.706 110.053,180.463 110.399 C 177.135 115.141,175.878 116.934,174.370 119.092 C 173.388 120.497,172.079 122.357,171.462 123.226 C 169.823 125.532,169.520 125.420,177.425 125.420 L 184.000 125.420 184.117 125.998 C 184.181 126.316,184.223 127.744,184.211 129.172 C 184.184 132.153,184.175 132.136,185.924 132.136 C 187.628 132.136,187.586 132.221,187.652 128.668 L 187.710 125.525 189.172 125.462 C 191.041 125.381,191.176 125.257,191.176 123.621 C 191.176 122.038,191.119 121.987,189.181 121.849 L 187.710 121.744 187.605 111.870 L 187.500 101.996 186.955 101.932 C 186.481 101.877,186.258 102.097,185.244 103.613 M194.468 102.661 C 194.235 102.894,194.308 122.858,194.549 124.779 C 195.740 134.278,209.946 135.889,213.233 126.898 C 213.950 124.936,214.097 122.229,214.032 112.185 L 213.971 102.626 212.374 102.565 L 210.778 102.504 210.628 113.280 C 210.454 125.795,210.433 125.936,208.435 127.783 C 205.235 130.740,199.405 129.342,198.208 125.330 C 197.954 124.477,197.899 122.410,197.899 113.659 C 197.899 105.668,197.836 102.963,197.647 102.773 C 197.382 102.508,194.715 102.414,194.468 102.661 M237.290 108.279 C 236.422 108.974,236.366 110.735,237.185 111.555 C 238.015 112.385,239.537 112.308,240.353 111.394 C 242.180 109.350,239.437 106.562,237.290 108.279 M248.131 108.383 C 247.272 109.186,247.206 110.584,247.986 111.490 C 248.769 112.401,250.422 112.352,251.278 111.394 C 253.162 109.285,250.200 106.450,248.131 108.383 M184.198 116.494 C 184.279 122.499,184.733 121.849,180.458 121.849 C 178.284 121.849,176.891 121.769,176.891 121.644 C 176.891 121.532,177.623 120.403,178.519 119.137 C 179.414 117.870,180.903 115.744,181.828 114.413 C 184.139 111.083,184.125 111.070,184.198 116.494 " stroke="none" fill="#fbfbfb" fill-rule="evenodd"></path><path id="path2" d="M138.537 42.489 L 137.920 43.172 138.603 42.555 C 138.978 42.216,139.286 41.909,139.286 41.872 C 139.286 41.710,139.112 41.853,138.537 42.489 M129.250 62.185 C 129.250 62.589,129.294 62.755,129.346 62.553 C 129.399 62.350,129.399 62.019,129.346 61.817 C 129.294 61.615,129.250 61.780,129.250 62.185 M128.941 64.076 C 128.707 65.814,128.746 67.068,129.013 66.398 C 129.126 66.116,129.191 65.218,129.158 64.402 L 129.097 62.920 128.941 64.076 M135.242 77.183 C 134.902 77.441,134.872 78.168,134.845 86.683 C 134.818 95.081,134.795 95.658,134.582 93.158 C 134.340 90.315,133.879 89.286,132.847 89.286 C 132.691 89.286,132.563 89.139,132.563 88.961 C 132.563 88.571,131.568 87.605,131.167 87.605 C 131.010 87.605,130.882 87.459,130.882 87.280 C 130.882 86.890,129.888 85.924,129.486 85.924 C 129.323 85.924,129.202 85.701,129.202 85.399 C 129.202 85.110,129.107 84.874,128.992 84.874 C 128.706 84.874,128.702 142.279,128.988 143.895 C 129.101 144.537,129.286 146.150,129.399 147.479 C 129.614 150.021,129.926 152.062,130.235 152.941 C 130.336 153.230,130.583 154.034,130.783 154.727 C 130.983 155.420,131.229 156.077,131.330 156.187 C 131.430 156.297,131.513 156.510,131.513 156.662 C 131.513 157.124,133.594 161.179,134.348 162.185 C 134.737 162.705,135.062 163.193,135.070 163.270 C 135.118 163.751,139.814 168.502,141.407 169.683 C 142.836 170.741,145.308 172.269,145.592 172.269 C 145.705 172.269,145.798 172.341,145.798 172.428 C 145.798 172.516,146.436 172.813,147.216 173.088 C 147.996 173.364,148.729 173.653,148.845 173.731 C 148.960 173.809,149.622 174.045,150.315 174.256 C 151.008 174.466,151.765 174.715,151.996 174.809 C 152.495 175.011,154.462 175.329,157.773 175.741 C 159.791 175.992,165.656 176.035,193.382 176.000 C 211.639 175.976,224.449 175.905,221.849 175.840 C 219.249 175.776,217.571 175.702,218.120 175.677 C 218.982 175.637,219.626 175.210,218.825 175.210 C 218.665 175.210,218.475 174.980,218.405 174.699 C 218.334 174.418,218.087 174.128,217.857 174.054 C 217.626 173.981,217.437 173.833,217.437 173.725 C 217.437 173.618,217.305 173.529,217.145 173.529 C 216.984 173.529,216.795 173.299,216.724 173.018 C 216.653 172.737,216.407 172.447,216.176 172.374 C 215.945 172.301,215.756 172.163,215.756 172.069 C 215.756 171.975,215.567 171.848,215.336 171.788 C 215.105 171.727,214.916 171.527,214.916 171.343 C 214.916 170.911,214.173 170.168,213.741 170.168 C 213.557 170.168,213.357 169.979,213.296 169.748 C 213.236 169.517,213.109 169.328,213.015 169.328 C 212.921 169.328,212.783 169.139,212.710 168.908 C 212.637 168.677,212.347 168.431,212.066 168.360 C 211.785 168.289,211.555 168.100,211.555 167.939 C 211.555 167.779,211.466 167.647,211.359 167.647 C 211.251 167.647,211.103 167.458,211.030 167.227 C 210.956 166.997,210.666 166.750,210.385 166.679 C 210.104 166.609,209.874 166.460,209.874 166.348 C 209.874 166.071,208.701 164.916,208.420 164.916 C 208.295 164.916,208.193 164.814,208.193 164.690 C 208.193 164.565,207.917 164.187,207.579 163.849 C 207.241 163.512,206.863 163.235,206.739 163.235 C 206.614 163.235,206.513 163.133,206.513 163.009 C 206.513 162.728,205.358 161.555,205.081 161.555 C 204.969 161.555,204.820 161.325,204.749 161.043 C 204.679 160.762,204.432 160.472,204.201 160.399 C 203.970 160.326,203.782 160.178,203.782 160.070 C 203.782 159.962,203.650 159.874,203.489 159.874 C 203.328 159.874,203.139 159.644,203.069 159.363 C 202.998 159.082,202.751 158.792,202.521 158.718 C 202.290 158.645,202.101 158.497,202.101 158.389 C 202.101 158.281,201.969 158.193,201.808 158.193 C 201.648 158.193,201.458 157.963,201.388 157.682 C 201.317 157.401,201.071 157.111,200.840 157.038 C 200.609 156.964,200.420 156.816,200.420 156.709 C 200.420 156.601,200.278 156.513,200.105 156.513 C 199.932 156.513,199.790 156.385,199.790 156.228 C 199.790 155.827,198.824 154.832,198.434 154.832 C 198.256 154.832,198.109 154.687,198.109 154.510 C 198.109 154.333,197.971 154.135,197.802 154.071 C 197.633 154.006,197.438 153.772,197.368 153.552 C 197.298 153.332,197.058 153.151,196.835 153.151 C 196.610 153.151,196.429 153.007,196.429 152.830 C 196.429 152.653,196.290 152.455,196.121 152.390 C 195.953 152.325,195.757 152.092,195.687 151.871 C 195.617 151.651,195.424 151.471,195.259 151.471 C 195.093 151.471,194.958 151.335,194.958 151.170 C 194.958 151.004,194.774 150.810,194.549 150.739 C 194.323 150.667,194.081 150.425,194.009 150.199 C 193.938 149.974,193.744 149.790,193.578 149.790 C 193.413 149.790,193.277 149.654,193.277 149.489 C 193.277 149.323,193.097 149.131,192.877 149.061 C 192.656 148.991,192.423 148.795,192.358 148.626 C 192.293 148.458,192.095 148.319,191.918 148.319 C 191.740 148.319,191.597 148.138,191.597 147.913 C 191.597 147.690,191.416 147.450,191.196 147.380 C 190.975 147.310,190.742 147.115,190.677 146.946 C 190.612 146.777,190.415 146.639,190.238 146.639 C 190.061 146.639,189.916 146.492,189.916 146.313 C 189.916 145.924,188.921 144.958,188.520 144.958 C 188.363 144.958,188.235 144.816,188.235 144.643 C 188.235 144.470,188.147 144.328,188.039 144.328 C 187.932 144.328,187.783 144.139,187.710 143.908 C 187.637 143.677,187.347 143.431,187.066 143.360 C 186.785 143.289,186.555 143.100,186.555 142.939 C 186.555 142.779,186.466 142.647,186.359 142.647 C 186.251 142.647,186.103 142.458,186.030 142.227 C 185.956 141.997,185.666 141.750,185.385 141.679 C 185.104 141.609,184.874 141.420,184.874 141.259 C 184.874 141.098,184.786 140.966,184.678 140.966 C 184.570 140.966,184.424 140.782,184.352 140.557 C 184.281 140.332,184.019 140.083,183.770 140.004 C 183.270 139.845,182.773 139.413,182.773 139.137 C 182.773 138.949,182.011 138.235,181.810 138.235 C 181.617 138.235,181.184 137.736,181.035 137.342 C 180.958 137.140,180.804 136.975,180.693 136.975 C 180.582 136.975,180.430 136.786,180.357 136.555 C 180.284 136.324,180.088 136.134,179.923 136.134 C 179.757 136.134,179.622 135.999,179.622 135.833 C 179.622 135.668,179.438 135.474,179.212 135.403 C 178.987 135.331,178.745 135.088,178.673 134.863 C 178.602 134.638,178.408 134.454,178.242 134.454 C 178.077 134.454,177.941 134.318,177.941 134.153 C 177.941 133.987,177.761 133.795,177.540 133.725 C 177.320 133.655,177.087 133.459,177.022 133.290 C 176.957 133.121,176.759 132.983,176.582 132.983 C 176.404 132.983,176.261 132.802,176.261 132.577 C 176.261 132.354,176.080 132.114,175.860 132.044 C 175.639 131.974,175.406 131.779,175.341 131.610 C 175.276 131.441,175.078 131.303,174.902 131.303 C 174.725 131.303,174.580 131.156,174.580 130.977 C 174.580 130.588,173.585 129.622,173.184 129.622 C 173.027 129.622,172.899 129.476,172.899 129.297 C 172.899 128.907,171.904 127.941,171.503 127.941 C 171.346 127.941,171.218 127.843,171.218 127.722 C 171.218 127.485,171.009 127.209,170.116 126.270 C 169.798 125.936,169.538 125.561,169.538 125.436 C 169.538 125.312,169.396 125.210,169.223 125.210 C 169.049 125.210,168.908 125.117,168.908 125.004 C 168.908 124.891,168.671 124.739,168.382 124.666 C 168.093 124.594,167.857 124.443,167.857 124.331 C 167.857 124.054,166.684 122.899,166.403 122.899 C 166.278 122.899,166.176 122.797,166.176 122.673 C 166.176 122.391,165.022 121.218,164.745 121.218 C 164.633 121.218,164.484 120.988,164.413 120.707 C 164.342 120.426,164.096 120.136,163.865 120.063 C 163.634 119.990,163.445 119.842,163.445 119.734 C 163.445 119.626,163.314 119.538,163.153 119.538 C 162.992 119.538,162.803 119.308,162.732 119.027 C 162.662 118.745,162.415 118.455,162.184 118.382 C 161.954 118.309,161.765 118.161,161.765 118.053 C 161.765 117.945,161.633 117.857,161.472 117.857 C 161.312 117.857,161.122 117.627,161.052 117.346 C 160.981 117.065,160.735 116.775,160.504 116.702 C 160.273 116.628,160.084 116.480,160.084 116.372 C 160.084 116.265,159.942 116.176,159.769 116.176 C 159.596 116.176,159.454 116.048,159.454 115.892 C 159.454 115.491,158.488 114.496,158.098 114.496 C 157.919 114.496,157.773 114.368,157.773 114.211 C 157.773 113.810,156.807 112.815,156.418 112.815 C 156.239 112.815,156.092 112.670,156.092 112.493 C 156.092 112.316,155.954 112.119,155.785 112.054 C 155.616 111.989,155.421 111.756,155.351 111.535 C 155.281 111.315,155.088 111.134,154.923 111.134 C 154.757 111.134,154.622 110.999,154.622 110.833 C 154.622 110.668,154.438 110.474,154.212 110.403 C 153.987 110.331,153.745 110.088,153.673 109.863 C 153.602 109.638,153.408 109.454,153.242 109.454 C 153.077 109.454,152.941 109.318,152.941 109.153 C 152.941 108.987,152.757 108.793,152.532 108.722 C 152.307 108.650,152.067 108.417,151.999 108.203 C 151.931 107.990,151.643 107.756,151.358 107.685 C 151.073 107.613,150.840 107.463,150.840 107.351 C 150.840 107.085,150.168 106.303,149.938 106.303 C 149.662 106.303,149.230 105.806,149.072 105.306 C 148.993 105.057,148.744 104.795,148.519 104.723 C 148.293 104.652,148.109 104.505,148.109 104.398 C 148.109 104.290,147.978 104.202,147.817 104.202 C 147.656 104.202,147.467 103.972,147.396 103.690 C 147.326 103.409,147.079 103.119,146.848 103.046 C 146.617 102.973,146.429 102.825,146.429 102.717 C 146.429 102.609,146.287 102.521,146.113 102.521 C 145.940 102.521,145.798 102.393,145.798 102.237 C 145.798 101.835,144.833 100.840,144.443 100.840 C 144.264 100.840,144.118 100.712,144.118 100.556 C 144.118 100.154,143.152 99.160,142.762 99.160 C 142.583 99.160,142.437 99.032,142.437 98.875 C 142.437 98.474,141.471 97.479,141.081 97.479 C 140.903 97.479,140.756 97.334,140.756 97.157 C 140.756 96.980,140.618 96.783,140.449 96.718 C 140.280 96.653,140.085 96.419,140.015 96.199 C 139.945 95.979,139.752 95.798,139.587 95.798 C 139.421 95.798,139.286 95.657,139.286 95.483 C 139.286 95.310,139.191 95.168,139.076 95.168 C 138.890 95.168,138.822 95.865,138.774 98.247 C 138.767 98.611,138.690 98.982,138.603 99.070 C 138.516 99.158,138.445 96.994,138.445 94.262 L 138.445 89.295 142.279 89.233 L 146.113 89.171 142.174 89.123 L 138.235 89.076 138.235 93.987 C 138.235 99.630,138.305 99.426,136.415 99.328 L 135.189 99.265 135.134 88.445 C 135.083 78.461,135.107 77.606,135.437 77.363 C 135.954 76.984,145.775 76.989,146.295 77.369 C 146.588 77.584,146.649 77.891,146.598 78.892 L 146.534 80.147 142.437 80.252 L 138.340 80.357 138.340 83.088 L 138.340 85.819 142.437 85.924 L 146.534 86.029 146.597 87.255 C 146.635 87.988,146.560 88.602,146.410 88.783 C 146.206 89.029,146.224 89.060,146.504 88.953 C 146.936 88.787,147.004 86.315,146.586 85.968 C 146.431 85.839,144.701 85.723,142.384 85.686 L 138.445 85.622 138.445 83.042 L 138.445 80.462 142.395 80.462 C 146.924 80.462,146.849 80.491,146.849 78.751 C 146.849 76.873,146.904 76.889,140.762 76.897 C 136.810 76.903,135.524 76.969,135.242 77.183 M154.884 82.288 C 155.087 82.341,155.418 82.341,155.620 82.288 C 155.822 82.235,155.657 82.192,155.252 82.192 C 154.848 82.192,154.682 82.235,154.884 82.288 M156.565 82.288 C 156.767 82.341,157.098 82.341,157.300 82.288 C 157.503 82.235,157.337 82.192,156.933 82.192 C 156.528 82.192,156.363 82.235,156.565 82.288 M184.506 82.293 C 184.824 82.341,185.344 82.341,185.662 82.293 C 185.980 82.245,185.720 82.206,185.084 82.206 C 184.449 82.206,184.189 82.245,184.506 82.293 M151.134 83.583 C 150.684 83.912,150.128 84.409,149.898 84.686 C 149.526 85.135,149.548 85.130,150.108 84.633 C 150.453 84.327,151.103 83.830,151.552 83.530 C 152.002 83.229,152.276 82.983,152.162 82.983 C 152.047 82.983,151.585 83.253,151.134 83.583 M160.504 83.424 C 160.909 83.666,161.664 84.257,162.183 84.737 C 162.920 85.419,162.989 85.454,162.498 84.899 C 161.776 84.084,160.340 82.983,160.000 82.984 C 159.873 82.984,160.100 83.183,160.504 83.424 M166.224 91.182 C 166.169 99.881,166.106 99.580,167.962 99.580 C 169.759 99.580,169.756 99.588,169.703 93.598 L 169.657 88.550 169.545 93.697 C 169.417 99.573,169.474 99.370,167.962 99.370 C 166.425 99.370,166.505 99.780,166.381 91.282 L 166.271 83.718 166.224 91.182 M171.523 91.282 C 171.523 95.441,171.551 97.173,171.586 95.129 C 171.620 93.086,171.620 89.682,171.586 87.566 C 171.552 85.450,171.523 87.122,171.523 91.282 M155.410 85.446 C 155.785 85.493,156.400 85.493,156.775 85.446 C 157.151 85.399,156.843 85.361,156.092 85.361 C 155.341 85.361,155.034 85.399,155.410 85.446 M184.506 85.445 C 184.824 85.493,185.344 85.493,185.662 85.445 C 185.980 85.396,185.720 85.357,185.084 85.357 C 184.449 85.357,184.189 85.396,184.506 85.445 M152.377 86.817 C 151.707 87.525,151.261 88.255,151.261 88.642 C 151.261 88.794,152.843 88.866,156.197 88.866 C 160.766 88.866,161.133 88.838,161.118 88.498 C 161.108 88.278,161.059 88.236,160.995 88.393 C 160.887 88.661,151.471 88.803,151.471 88.537 C 151.471 88.249,151.992 87.446,152.587 86.817 C 152.943 86.442,153.186 86.134,153.129 86.134 C 153.071 86.134,152.733 86.442,152.377 86.817 M159.261 86.397 C 159.309 86.426,159.632 86.686,159.979 86.975 L 160.609 87.500 160.100 86.922 C 159.820 86.605,159.497 86.345,159.382 86.345 C 159.267 86.345,159.213 86.368,159.261 86.397 M147.542 88.788 C 147.276 89.742,147.360 93.116,147.662 93.592 C 147.912 93.987,147.921 93.981,147.807 93.487 C 147.517 92.230,147.451 90.566,147.649 89.496 C 147.879 88.246,147.814 87.812,147.542 88.788 M176.318 90.336 C 176.318 90.856,176.359 91.069,176.409 90.809 C 176.459 90.549,176.459 90.123,176.409 89.863 C 176.359 89.603,176.318 89.816,176.318 90.336 M179.465 91.071 C 179.467 91.534,179.510 91.698,179.560 91.437 C 179.611 91.175,179.609 90.797,179.556 90.596 C 179.504 90.395,179.462 90.609,179.465 91.071 M161.514 93.225 C 161.340 93.427,161.126 93.734,161.038 93.908 C 160.950 94.081,161.107 93.951,161.386 93.619 C 161.887 93.022,161.902 93.019,162.564 93.361 C 162.933 93.552,163.235 93.661,163.235 93.603 C 163.235 93.504,162.089 92.857,161.913 92.857 C 161.867 92.857,161.688 93.023,161.514 93.225 M147.899 94.281 C 147.899 94.536,148.726 96.008,148.870 96.008 C 148.952 96.008,148.153 94.328,147.978 94.135 C 147.935 94.087,147.899 94.153,147.899 94.281 M151.635 94.433 C 152.090 95.303,154.247 96.873,154.559 96.561 C 154.619 96.502,154.310 96.304,153.873 96.121 C 153.436 95.939,152.704 95.390,152.247 94.901 C 151.790 94.412,151.514 94.202,151.635 94.433 M159.772 95.255 C 159.311 95.707,159.122 95.975,159.352 95.852 C 159.818 95.600,160.835 94.569,160.698 94.486 C 160.649 94.457,160.232 94.803,159.772 95.255 M155.518 96.789 C 155.837 96.838,156.310 96.836,156.568 96.787 C 156.826 96.737,156.565 96.697,155.987 96.699 C 155.410 96.700,155.198 96.741,155.518 96.789 M150.000 97.584 C 150.271 97.873,150.529 98.109,150.572 98.109 C 150.746 98.109,149.880 97.072,149.701 97.065 C 149.594 97.062,149.729 97.295,150.000 97.584 M161.975 97.626 C 161.225 98.373,159.814 99.162,158.661 99.479 C 157.952 99.674,157.824 99.758,158.212 99.771 C 158.920 99.796,161.011 98.732,162.080 97.804 C 162.542 97.403,162.826 97.081,162.710 97.089 C 162.595 97.097,162.264 97.339,161.975 97.626 M150.842 98.274 C 150.843 98.461,152.126 99.205,152.243 99.087 C 152.290 99.040,151.994 98.804,151.585 98.563 C 151.175 98.321,150.841 98.191,150.842 98.274 M171.822 99.212 C 172.038 99.488,172.380 99.570,173.187 99.542 L 174.265 99.504 173.220 99.423 C 172.645 99.379,172.030 99.231,171.854 99.094 C 171.574 98.876,171.570 98.891,171.822 99.212 M153.046 99.482 C 153.393 99.641,153.866 99.769,154.097 99.766 C 154.328 99.764,154.091 99.628,153.571 99.464 C 152.405 99.096,152.218 99.103,153.046 99.482 M186.108 101.628 C 185.847 101.961,185.854 101.969,186.186 101.708 C 186.387 101.550,186.786 101.466,187.072 101.521 C 187.358 101.575,187.542 101.539,187.481 101.440 C 187.287 101.126,186.407 101.247,186.108 101.628 M198.206 112.710 C 198.206 118.256,198.234 120.495,198.267 117.685 C 198.300 114.875,198.300 110.337,198.267 107.601 C 198.233 104.865,198.206 107.164,198.206 112.710 M210.181 112.710 C 210.181 118.141,210.208 120.393,210.241 117.714 C 210.275 115.036,210.275 110.592,210.241 107.840 C 210.208 105.088,210.181 107.279,210.181 112.710 M183.692 104.989 C 183.071 105.843,182.879 106.277,183.391 105.672 C 183.865 105.113,184.306 104.412,184.186 104.412 C 184.145 104.412,183.923 104.672,183.692 104.989 M180.672 109.244 C 180.425 109.590,180.271 109.874,180.329 109.874 C 180.386 109.874,180.636 109.590,180.882 109.244 C 181.129 108.897,181.284 108.613,181.226 108.613 C 181.168 108.613,180.919 108.897,180.672 109.244 M178.845 111.817 C 177.409 113.828,177.080 114.355,177.564 113.866 C 177.982 113.443,180.308 110.084,180.182 110.084 C 180.127 110.084,179.526 110.864,178.845 111.817 M188.074 115.809 L 188.025 121.639 189.484 121.639 C 190.753 121.639,190.985 121.699,191.270 122.106 C 191.769 122.819,191.711 124.886,191.176 125.420 C 190.945 125.651,190.845 125.840,190.954 125.840 C 191.830 125.840,192.163 122.731,191.378 121.888 C 191.023 121.507,190.718 121.429,189.596 121.429 L 188.242 121.429 188.183 115.704 L 188.123 109.979 188.074 115.809 M183.569 117.027 L 183.630 121.429 180.698 121.429 C 178.605 121.429,177.742 121.356,177.682 121.177 C 177.630 121.020,177.545 121.062,177.459 121.287 C 177.330 121.622,177.563 121.645,180.519 121.592 L 183.718 121.534 183.775 117.242 C 183.807 114.881,183.760 112.877,183.670 112.788 C 183.581 112.698,183.536 114.606,183.569 117.027 M182.748 113.708 C 180.877 116.405,180.432 117.083,180.715 116.807 C 181.142 116.390,183.469 113.025,183.330 113.025 C 183.271 113.025,183.009 113.332,182.748 113.708 M176.681 114.916 C 176.434 115.263,176.279 115.546,176.337 115.546 C 176.395 115.546,176.644 115.263,176.891 114.916 C 177.138 114.569,177.292 114.286,177.234 114.286 C 177.177 114.286,176.928 114.569,176.681 114.916 M175.630 116.387 C 175.383 116.733,175.229 117.017,175.287 117.017 C 175.344 117.017,175.594 116.733,175.840 116.387 C 176.087 116.040,176.242 115.756,176.184 115.756 C 176.126 115.756,175.877 116.040,175.630 116.387 M173.351 119.590 C 172.420 120.890,171.575 122.051,171.474 122.169 C 171.373 122.288,171.110 122.666,170.889 123.010 C 170.669 123.353,170.369 123.759,170.223 123.912 C 170.077 124.065,169.958 124.293,169.958 124.420 C 169.958 124.711,169.797 124.915,171.988 121.849 C 174.440 118.417,175.251 117.227,175.137 117.227 C 175.086 117.227,174.283 118.290,173.351 119.590 M178.582 119.628 C 178.229 120.140,177.941 120.631,177.941 120.719 C 177.941 120.893,178.895 119.664,179.224 119.065 C 179.613 118.358,179.216 118.706,178.582 119.628 M235.084 121.113 C 235.476 121.518,235.844 121.849,235.902 121.849 C 235.960 121.849,235.686 121.518,235.294 121.113 C 234.902 120.709,234.534 120.378,234.476 120.378 C 234.419 120.378,234.692 120.709,235.084 121.113 M214.343 123.319 C 214.343 123.839,214.384 124.052,214.434 123.792 C 214.484 123.532,214.484 123.107,214.434 122.847 C 214.384 122.587,214.343 122.799,214.343 123.319 M193.929 124.387 C 193.940 124.782,194.028 125.341,194.125 125.630 C 194.238 125.969,194.258 125.746,194.180 125.000 C 194.044 123.678,193.897 123.323,193.929 124.387 M169.958 125.172 C 169.958 125.932,170.555 126.051,174.122 126.003 L 177.626 125.957 174.160 125.898 C 170.930 125.843,170.668 125.808,170.326 125.396 C 170.123 125.153,169.958 125.052,169.958 125.172 M229.307 126.261 C 229.758 126.723,230.175 127.101,230.232 127.101 C 230.290 127.101,229.968 126.723,229.517 126.261 C 229.065 125.798,228.649 125.420,228.591 125.420 C 228.533 125.420,228.855 125.798,229.307 126.261 M183.660 128.934 L 183.613 132.133 184.138 132.477 C 184.535 132.737,185.019 132.800,186.130 132.738 C 188.204 132.621,188.232 132.567,188.182 128.782 L 188.143 125.735 188.083 128.782 C 188.010 132.445,187.940 132.563,185.829 132.563 C 183.902 132.563,183.850 132.467,183.771 128.772 L 183.706 125.735 183.660 128.934 M208.285 127.363 L 207.668 128.046 208.351 127.429 C 208.726 127.090,209.034 126.783,209.034 126.746 C 209.034 126.584,208.860 126.727,208.285 127.363 M196.324 130.009 C 197.146 130.901,198.754 132.143,199.089 132.143 C 199.181 132.143,198.881 131.894,198.421 131.590 C 197.960 131.286,197.112 130.600,196.534 130.067 L 195.485 129.097 196.324 130.009 M199.370 132.264 C 199.370 132.406,200.461 132.802,200.565 132.698 C 200.613 132.651,200.363 132.511,200.011 132.388 C 199.658 132.265,199.370 132.209,199.370 132.264 M201.366 132.973 C 201.769 133.156,202.894 133.275,202.714 133.116 C 202.665 133.074,202.248 132.981,201.786 132.911 C 201.200 132.822,201.073 132.841,201.366 132.973 M206.513 132.983 L 205.987 133.151 206.513 133.169 C 206.801 133.179,207.180 133.095,207.353 132.983 C 207.754 132.724,207.322 132.724,206.513 132.983 M203.834 133.344 C 204.152 133.392,204.672 133.392,204.989 133.344 C 205.307 133.296,205.047 133.256,204.412 133.256 C 203.776 133.256,203.516 133.296,203.834 133.344 M261.865 167.069 L 260.189 168.803 261.922 167.127 C 263.532 165.570,263.751 165.336,263.598 165.336 C 263.566 165.336,262.786 166.116,261.865 167.069 M245.063 175.426 C 244.782 175.550,244.957 175.570,245.588 175.487 C 246.108 175.418,246.573 175.328,246.621 175.286 C 246.804 175.128,245.464 175.248,245.063 175.426 M241.387 175.840 L 240.441 175.987 241.282 176.000 C 241.744 176.008,242.595 175.940,243.172 175.850 L 244.223 175.686 243.277 175.690 C 242.757 175.692,241.907 175.759,241.387 175.840 " stroke="none" fill="#8c94db" fill-rule="evenodd"></path><path id="path3" d="M170.131 33.771 C 175.022 33.802,182.963 33.802,187.778 33.771 C 192.594 33.739,188.592 33.714,178.887 33.714 C 169.181 33.714,165.241 33.740,170.131 33.771 M271.320 94.118 C 271.320 109.196,271.345 115.365,271.376 107.826 C 271.407 100.286,271.407 87.949,271.376 80.410 C 271.345 72.870,271.320 79.039,271.320 94.118 M166.639 76.933 C 166.448 77.124,166.399 79.815,166.436 88.015 L 166.486 98.845 166.594 87.920 L 166.702 76.996 167.857 76.872 L 169.013 76.749 167.952 76.715 C 167.361 76.696,166.779 76.792,166.639 76.933 M171.822 77.048 C 171.570 77.370,171.574 77.385,171.854 77.167 C 172.030 77.030,172.645 76.881,173.220 76.837 L 174.265 76.756 173.187 76.719 C 172.380 76.690,172.038 76.773,171.822 77.048 M138.300 77.258 C 139.780 77.294,142.143 77.294,143.552 77.258 C 144.961 77.221,143.750 77.192,140.861 77.192 C 137.973 77.192,136.820 77.222,138.300 77.258 M169.425 88.025 C 169.425 93.976,169.452 96.410,169.485 93.435 C 169.518 90.460,169.518 85.591,169.485 82.616 C 169.452 79.640,169.425 82.075,169.425 88.025 M174.677 88.025 C 174.677 93.976,174.704 96.410,174.737 93.435 C 174.770 90.460,174.770 85.591,174.737 82.616 C 174.704 79.640,174.677 82.075,174.677 88.025 M138.165 80.392 C 137.972 80.586,137.988 85.666,138.183 85.787 C 138.269 85.840,138.340 84.617,138.340 83.068 C 138.340 81.519,138.332 80.252,138.323 80.252 C 138.313 80.252,138.242 80.315,138.165 80.392 M149.989 84.821 L 149.265 85.609 150.053 84.885 C 150.786 84.211,150.937 84.034,150.777 84.034 C 150.741 84.034,150.387 84.388,149.989 84.821 M178.980 84.821 L 178.256 85.609 179.044 84.885 C 179.777 84.211,179.929 84.034,179.768 84.034 C 179.733 84.034,179.378 84.388,178.980 84.821 M190.546 84.309 C 190.546 84.346,190.853 84.653,191.229 84.992 L 191.912 85.609 191.295 84.926 C 190.720 84.290,190.546 84.147,190.546 84.309 M227.156 85.025 C 227.476 85.073,227.948 85.072,228.207 85.022 C 228.465 84.972,228.204 84.932,227.626 84.934 C 227.048 84.936,226.837 84.976,227.156 85.025 M155.725 85.229 C 155.927 85.282,156.258 85.282,156.460 85.229 C 156.662 85.176,156.497 85.133,156.092 85.133 C 155.688 85.133,155.523 85.176,155.725 85.229 M223.838 100.525 C 223.838 107.920,223.865 110.915,223.897 107.180 C 223.929 103.445,223.929 97.395,223.897 93.735 C 223.865 90.075,223.838 93.130,223.838 100.525 M231.186 94.223 C 231.186 98.036,231.215 99.625,231.250 97.755 C 231.284 95.885,231.284 92.765,231.250 90.822 C 231.215 88.879,231.187 90.410,231.186 94.223 M146.307 88.651 C 146.194 88.764,144.375 88.884,142.221 88.918 L 138.340 88.981 142.254 89.028 C 145.517 89.068,146.211 89.023,146.429 88.761 C 146.719 88.411,146.629 88.329,146.307 88.651 M151.136 88.703 C 151.178 88.911,152.308 88.971,156.197 88.971 C 160.087 88.971,161.217 88.911,161.259 88.703 C 161.289 88.555,161.265 88.532,161.206 88.650 C 161.138 88.788,159.336 88.866,156.197 88.866 C 153.059 88.866,151.257 88.788,151.189 88.650 C 151.130 88.532,151.106 88.555,151.136 88.703 M138.116 94.118 C 138.116 96.833,138.146 97.944,138.182 96.586 C 138.219 95.228,138.219 93.007,138.182 91.649 C 138.146 90.291,138.116 91.402,138.116 94.118 M147.544 91.071 C 147.545 91.765,147.584 92.023,147.631 91.645 C 147.678 91.268,147.677 90.701,147.629 90.385 C 147.581 90.069,147.543 90.378,147.544 91.071 M190.611 91.071 C 190.612 91.765,190.652 92.023,190.698 91.645 C 190.745 91.268,190.744 90.701,190.696 90.385 C 190.648 90.069,190.610 90.378,190.611 91.071 M150.709 91.905 C 150.644 92.074,150.639 92.334,150.699 92.483 C 150.758 92.631,150.815 92.541,150.824 92.282 L 150.840 91.813 157.511 91.754 L 164.181 91.696 157.504 91.646 C 151.798 91.604,150.810 91.641,150.709 91.905 M245.221 92.582 C 245.423 92.635,245.754 92.635,245.956 92.582 C 246.158 92.529,245.993 92.486,245.588 92.486 C 245.184 92.486,245.018 92.529,245.221 92.582 M188.957 95.221 L 188.340 95.903 189.023 95.286 C 189.399 94.947,189.706 94.640,189.706 94.604 C 189.706 94.441,189.533 94.584,188.957 95.221 M210.852 99.212 C 210.905 99.299,211.127 99.370,211.345 99.370 C 211.562 99.370,211.784 99.299,211.837 99.212 C 211.891 99.126,211.669 99.055,211.345 99.055 C 211.020 99.055,210.798 99.126,210.852 99.212 M155.200 99.734 C 155.691 99.778,156.494 99.778,156.985 99.734 C 157.476 99.689,157.075 99.653,156.092 99.653 C 155.110 99.653,154.709 99.689,155.200 99.734 M184.401 99.732 C 184.777 99.778,185.391 99.778,185.767 99.732 C 186.142 99.685,185.835 99.647,185.084 99.647 C 184.333 99.647,184.026 99.685,184.401 99.732 M195.321 102.252 C 195.694 102.299,196.356 102.300,196.792 102.254 C 197.227 102.209,196.922 102.171,196.113 102.170 C 195.305 102.169,194.948 102.206,195.321 102.252 M211.497 102.252 C 211.870 102.299,212.532 102.300,212.968 102.254 C 213.404 102.209,213.099 102.171,212.290 102.170 C 211.481 102.169,211.124 102.206,211.497 102.252 M194.004 102.784 C 193.949 102.928,193.928 107.726,193.958 113.445 L 194.013 123.845 194.118 113.183 C 194.175 107.319,194.196 102.521,194.164 102.521 C 194.131 102.521,194.059 102.639,194.004 102.784 M214.383 112.710 C 214.383 118.141,214.410 120.393,214.443 117.714 C 214.476 115.036,214.476 110.592,214.443 107.840 C 214.410 105.088,214.383 107.279,214.383 112.710 M234.244 120.444 C 234.244 120.480,234.551 120.787,234.926 121.127 L 235.609 121.744 234.992 121.061 C 234.417 120.424,234.244 120.282,234.244 120.444 M191.454 123.739 C 191.454 124.491,191.492 124.798,191.539 124.422 C 191.585 124.047,191.585 123.432,191.539 123.057 C 191.492 122.681,191.454 122.988,191.454 123.739 M198.158 123.529 C 198.158 123.934,198.201 124.099,198.254 123.897 C 198.307 123.695,198.307 123.364,198.254 123.162 C 198.201 122.960,198.158 123.125,198.158 123.529 M242.910 124.100 C 243.227 124.148,243.747 124.148,244.065 124.100 C 244.383 124.052,244.123 124.013,243.487 124.013 C 242.852 124.013,242.592 124.052,242.910 124.100 M169.965 124.691 C 169.961 124.809,170.105 125.117,170.285 125.373 L 170.612 125.840 177.165 125.792 L 183.718 125.744 177.136 125.635 L 170.554 125.525 170.263 125.000 C 170.104 124.711,169.970 124.572,169.965 124.691 M229.307 126.050 C 229.876 126.628,230.389 127.101,230.446 127.101 C 230.504 127.101,230.086 126.628,229.517 126.050 C 228.948 125.473,228.435 125.000,228.377 125.000 C 228.319 125.000,228.738 125.473,229.307 126.050 M188.598 125.782 C 188.971 125.828,189.633 125.829,190.069 125.784 C 190.505 125.738,190.200 125.700,189.391 125.699 C 188.582 125.698,188.225 125.735,188.598 125.782 M203.939 129.140 C 204.199 129.190,204.624 129.190,204.884 129.140 C 205.144 129.090,204.932 129.049,204.412 129.049 C 203.892 129.049,203.679 129.090,203.939 129.140 M184.432 132.416 C 184.525 132.509,185.206 132.555,185.946 132.519 L 187.290 132.453 185.776 132.351 C 184.944 132.294,184.339 132.324,184.432 132.416 M203.519 133.137 C 204.010 133.181,204.814 133.181,205.305 133.137 C 205.796 133.093,205.394 133.057,204.412 133.057 C 203.430 133.057,203.028 133.093,203.519 133.137 M128.902 145.063 C 128.967 146.103,129.096 147.332,129.190 147.794 C 129.302 148.342,129.326 147.904,129.260 146.534 C 129.204 145.378,129.074 144.149,128.971 143.803 C 128.847 143.383,128.824 143.803,128.902 145.063 M129.451 149.895 C 129.457 150.126,129.534 150.599,129.622 150.945 L 129.782 151.576 129.792 150.945 C 129.798 150.599,129.721 150.126,129.622 149.895 L 129.441 149.475 129.451 149.895 M130.048 153.046 C 130.048 153.277,130.140 153.608,130.252 153.782 C 130.421 154.042,130.456 154.024,130.456 153.676 C 130.456 153.445,130.364 153.114,130.252 152.941 C 130.083 152.680,130.048 152.698,130.048 153.046 M130.580 154.832 C 130.655 155.236,130.808 155.662,130.919 155.777 C 131.162 156.029,130.925 154.891,130.635 154.412 C 130.511 154.207,130.492 154.354,130.580 154.832 M131.092 156.300 C 131.092 156.665,133.183 161.004,133.302 160.886 C 133.360 160.828,132.981 159.922,132.460 158.873 C 131.939 157.824,131.513 156.822,131.513 156.647 C 131.513 156.471,131.418 156.269,131.303 156.197 C 131.187 156.126,131.092 156.172,131.092 156.300 M133.512 161.365 C 134.048 162.277,134.928 163.462,135.009 163.380 C 135.124 163.265,133.894 161.413,133.570 161.213 C 133.418 161.119,133.398 161.171,133.512 161.365 M135.993 164.863 C 137.778 167.173,140.217 169.301,143.446 171.366 C 145.560 172.718,145.798 172.831,145.798 172.479 C 145.798 172.363,145.705 172.269,145.592 172.269 C 145.306 172.269,142.828 170.736,141.407 169.680 C 140.046 168.668,136.371 165.082,135.827 164.233 C 135.623 163.915,135.367 163.655,135.258 163.655 C 135.149 163.655,135.480 164.199,135.993 164.863 M261.753 167.384 L 261.029 168.172 261.817 167.448 C 262.551 166.774,262.702 166.597,262.541 166.597 C 262.506 166.597,262.152 166.951,261.753 167.384 M147.164 173.319 C 148.391 173.902,149.244 174.134,148.834 173.775 C 148.612 173.580,146.261 172.680,146.042 172.705 C 145.966 172.714,146.471 172.990,147.164 173.319 M149.160 174.046 C 149.160 174.197,151.942 175.019,152.058 174.903 C 152.115 174.846,152.029 174.765,151.868 174.723 C 151.707 174.681,151.090 174.489,150.497 174.298 C 149.352 173.928,149.160 173.892,149.160 174.046 M152.982 175.200 C 153.293 175.297,154.049 175.432,154.662 175.499 C 155.370 175.577,155.585 175.558,155.252 175.449 C 154.963 175.354,154.207 175.219,153.571 175.149 C 152.807 175.065,152.608 175.082,152.982 175.200 M156.828 175.850 C 157.405 175.940,158.256 176.009,158.718 176.004 C 159.533 175.995,159.527 175.989,158.508 175.831 C 157.931 175.741,157.080 175.671,156.618 175.677 C 155.803 175.686,155.809 175.691,156.828 175.850 M160.350 176.201 C 160.669 176.249,161.142 176.248,161.400 176.198 C 161.658 176.148,161.397 176.109,160.819 176.111 C 160.242 176.112,160.030 176.153,160.350 176.201 M239.131 176.201 C 239.450 176.249,239.923 176.248,240.181 176.198 C 240.440 176.148,240.179 176.109,239.601 176.111 C 239.023 176.112,238.812 176.153,239.131 176.201 " stroke="none" fill="#9ca2db" fill-rule="evenodd"></path><path id="path4" d="M206.880 33.771 C 212.686 33.802,222.187 33.802,227.994 33.771 C 233.800 33.740,229.049 33.715,217.437 33.715 C 205.825 33.715,201.074 33.740,206.880 33.771 M159.821 33.972 C 160.081 34.022,160.507 34.022,160.767 33.972 C 161.027 33.922,160.814 33.881,160.294 33.881 C 159.774 33.881,159.561 33.922,159.821 33.972 M156.985 34.178 C 157.188 34.231,157.518 34.231,157.721 34.178 C 157.923 34.126,157.757 34.082,157.353 34.082 C 156.949 34.082,156.783 34.126,156.985 34.178 M271.071 65.546 C 271.071 66.182,271.111 66.442,271.159 66.124 C 271.207 65.806,271.207 65.286,271.159 64.968 C 271.111 64.651,271.071 64.911,271.071 65.546 M194.803 82.714 C 195.123 82.762,195.595 82.761,195.854 82.711 C 196.112 82.661,195.851 82.622,195.273 82.623 C 194.695 82.625,194.484 82.665,194.803 82.714 M216.862 82.714 C 217.181 82.762,217.654 82.761,217.913 82.711 C 218.171 82.661,217.910 82.622,217.332 82.623 C 216.754 82.625,216.543 82.665,216.862 82.714 M237.263 98.319 C 237.263 99.533,237.297 100.029,237.340 99.422 C 237.382 98.816,237.382 97.823,237.340 97.216 C 237.297 96.610,237.263 97.106,237.263 98.319 M258.929 97.689 C 259.498 98.267,260.010 98.739,260.068 98.739 C 260.126 98.739,259.708 98.267,259.139 97.689 C 258.570 97.111,258.057 96.639,257.999 96.639 C 257.941 96.639,258.360 97.111,258.929 97.689 M245.958 100.359 C 246.220 100.409,246.598 100.407,246.799 100.354 C 247.000 100.302,246.786 100.261,246.324 100.263 C 245.861 100.265,245.697 100.308,245.958 100.359 M253.571 103.217 C 253.571 103.253,253.879 103.560,254.254 103.900 L 254.937 104.517 254.320 103.834 C 253.745 103.198,253.571 103.055,253.571 103.217 M241.019 104.136 C 241.221 104.189,241.552 104.189,241.754 104.136 C 241.956 104.084,241.791 104.040,241.387 104.040 C 240.982 104.040,240.817 104.084,241.019 104.136 M251.331 108.250 C 251.697 108.627,252.036 108.910,252.086 108.878 C 252.205 108.800,251.014 107.563,250.819 107.563 C 250.735 107.563,250.965 107.872,251.331 108.250 M231.365 109.874 C 231.365 110.509,231.405 110.769,231.453 110.452 C 231.501 110.134,231.501 109.614,231.453 109.296 C 231.405 108.978,231.365 109.238,231.365 109.874 M256.998 111.870 C 256.999 112.563,257.038 112.821,257.085 112.444 C 257.132 112.066,257.131 111.499,257.083 111.183 C 257.035 110.868,256.997 111.176,256.998 111.870 M231.360 112.185 C 231.360 112.705,231.401 112.918,231.451 112.658 C 231.501 112.398,231.501 111.972,231.451 111.712 C 231.401 111.452,231.360 111.665,231.360 112.185 M264.766 112.500 C 264.768 113.078,264.808 113.289,264.857 112.970 C 264.905 112.650,264.904 112.178,264.854 111.919 C 264.804 111.661,264.764 111.922,264.766 112.500 M243.227 131.871 C 243.489 131.922,243.867 131.920,244.068 131.867 C 244.268 131.814,244.055 131.773,243.592 131.776 C 243.130 131.778,242.966 131.821,243.227 131.871 M271.074 144.433 C 271.075 145.126,271.114 145.384,271.161 145.007 C 271.207 144.629,271.206 144.062,271.159 143.746 C 271.111 143.431,271.072 143.739,271.074 144.433 M180.935 176.208 C 191.536 176.238,208.884 176.238,219.485 176.208 C 230.087 176.178,221.413 176.153,200.210 176.153 C 179.007 176.153,170.334 176.178,180.935 176.208 " stroke="none" fill="#9494cd" fill-rule="evenodd"></path><path id="path5" d="M159.929 33.764 C 160.249 33.812,160.721 33.811,160.980 33.761 C 161.238 33.711,160.977 33.672,160.399 33.674 C 159.821 33.675,159.610 33.716,159.929 33.764 M239.341 33.764 C 239.660 33.812,240.133 33.811,240.392 33.761 C 240.650 33.711,240.389 33.672,239.811 33.674 C 239.233 33.675,239.022 33.716,239.341 33.764 M158.246 33.968 C 158.448 34.021,158.779 34.021,158.981 33.968 C 159.183 33.916,159.018 33.872,158.613 33.872 C 158.209 33.872,158.044 33.916,158.246 33.968 M136.753 44.065 L 136.029 44.853 136.817 44.129 C 137.551 43.455,137.702 43.277,137.541 43.277 C 137.506 43.277,137.152 43.632,136.753 44.065 M128.830 63.655 C 128.830 64.060,128.873 64.225,128.926 64.023 C 128.979 63.821,128.979 63.490,128.926 63.288 C 128.873 63.086,128.830 63.251,128.830 63.655 M128.674 103.992 C 128.674 125.657,128.699 134.519,128.729 123.687 C 128.759 112.855,128.759 95.129,128.729 84.296 C 128.699 73.464,128.674 82.327,128.674 103.992 M271.267 65.546 C 271.267 65.951,271.310 66.116,271.363 65.914 C 271.416 65.712,271.416 65.381,271.363 65.179 C 271.310 64.976,271.267 65.142,271.267 65.546 M171.736 88.025 C 171.736 93.976,171.763 96.410,171.796 93.435 C 171.829 90.460,171.829 85.591,171.796 82.616 C 171.763 79.640,171.736 82.075,171.736 88.025 M135.132 88.275 C 135.105 94.133,135.155 98.969,135.242 99.022 C 135.385 99.111,135.382 91.108,135.236 81.408 C 135.205 79.328,135.158 82.418,135.132 88.275 M146.482 78.466 C 146.484 78.929,146.527 79.093,146.577 78.832 C 146.627 78.570,146.625 78.192,146.573 77.991 C 146.520 77.790,146.479 78.004,146.482 78.466 M138.162 80.200 C 138.108 80.286,139.261 80.333,140.723 80.302 C 145.630 80.201,146.143 80.125,142.187 80.083 C 140.027 80.061,138.216 80.113,138.162 80.200 M142.227 86.080 C 145.576 86.131,146.150 86.189,146.376 86.492 C 146.520 86.686,146.639 86.751,146.639 86.637 C 146.639 86.009,146.086 85.925,142.237 85.972 L 138.340 86.019 142.227 86.080 M176.536 91.071 C 176.537 91.765,176.576 92.023,176.623 91.645 C 176.670 91.268,176.669 90.701,176.621 90.385 C 176.573 90.069,176.535 90.378,176.536 91.071 M193.547 91.071 C 193.549 91.649,193.590 91.861,193.638 91.541 C 193.686 91.222,193.685 90.749,193.635 90.491 C 193.585 90.232,193.546 90.494,193.547 91.071 M164.520 90.662 C 164.507 90.899,164.402 91.206,164.286 91.345 C 164.171 91.484,164.228 91.467,164.412 91.307 C 164.596 91.147,164.701 90.839,164.645 90.624 C 164.554 90.270,164.542 90.274,164.520 90.662 M237.474 98.319 C 237.474 99.648,237.509 100.192,237.550 99.527 C 237.592 98.863,237.592 97.776,237.550 97.111 C 237.509 96.447,237.474 96.991,237.474 98.319 M162.174 97.216 L 161.450 98.004 162.237 97.280 C 162.971 96.606,163.122 96.429,162.961 96.429 C 162.926 96.429,162.572 96.783,162.174 97.216 M150.210 97.374 C 150.602 97.778,150.970 98.109,151.028 98.109 C 151.086 98.109,150.812 97.778,150.420 97.374 C 150.028 96.970,149.660 96.639,149.602 96.639 C 149.545 96.639,149.818 96.970,150.210 97.374 M155.515 96.999 C 155.832 97.047,156.352 97.047,156.670 96.999 C 156.988 96.951,156.728 96.912,156.092 96.912 C 155.457 96.912,155.197 96.951,155.515 96.999 M184.716 96.994 C 184.919 97.046,185.249 97.046,185.452 96.994 C 185.654 96.941,185.488 96.897,185.084 96.897 C 184.680 96.897,184.514 96.941,184.716 96.994 M258.824 97.794 C 259.216 98.199,259.583 98.529,259.641 98.529 C 259.699 98.529,259.426 98.199,259.034 97.794 C 258.642 97.390,258.274 97.059,258.216 97.059 C 258.158 97.059,258.432 97.390,258.824 97.794 M136.190 99.310 C 136.509 99.359,136.982 99.357,137.240 99.308 C 137.499 99.258,137.237 99.218,136.660 99.220 C 136.082 99.221,135.871 99.262,136.190 99.310 M167.597 99.308 C 167.858 99.358,168.236 99.357,168.437 99.304 C 168.638 99.251,168.424 99.210,167.962 99.213 C 167.500 99.215,167.336 99.258,167.597 99.308 M231.186 107.458 C 231.186 111.040,231.214 112.535,231.250 110.780 C 231.285 109.025,231.285 106.094,231.250 104.267 C 231.215 102.440,231.186 103.876,231.186 107.458 M197.634 102.540 C 197.831 102.792,197.909 105.259,197.952 112.624 L 198.009 122.374 198.059 112.578 C 198.106 103.464,198.084 102.762,197.742 102.494 C 197.416 102.239,197.404 102.244,197.634 102.540 M210.528 102.598 C 210.356 102.804,210.306 105.524,210.347 112.314 L 210.404 121.744 210.454 112.279 C 210.491 105.256,210.569 102.750,210.756 102.563 C 210.895 102.424,210.954 102.311,210.887 102.311 C 210.820 102.311,210.659 102.440,210.528 102.598 M187.920 112.132 L 187.920 121.744 189.286 121.758 L 190.651 121.772 189.340 121.696 L 188.029 121.620 187.975 112.070 L 187.920 102.521 187.920 112.132 M254.202 103.676 C 254.594 104.081,254.962 104.412,255.019 104.412 C 255.077 104.412,254.804 104.081,254.412 103.676 C 254.020 103.272,253.652 102.941,253.594 102.941 C 253.536 102.941,253.810 103.272,254.202 103.676 M257.196 111.870 C 257.198 112.332,257.241 112.496,257.291 112.235 C 257.342 111.974,257.340 111.595,257.287 111.395 C 257.235 111.194,257.194 111.408,257.196 111.870 M183.773 115.388 C 183.871 121.243,183.949 121.798,183.991 116.964 C 184.015 114.336,183.963 112.185,183.876 112.185 C 183.789 112.184,183.743 113.626,183.773 115.388 M177.285 121.697 C 177.375 121.787,178.859 121.834,180.584 121.801 L 183.718 121.742 180.420 121.638 C 178.605 121.581,177.194 121.607,177.285 121.697 M271.316 132.458 C 271.316 138.582,271.343 141.057,271.376 137.958 C 271.409 134.859,271.409 129.848,271.376 126.823 C 271.343 123.798,271.316 126.334,271.316 132.458 M244.800 124.094 C 245.003 124.147,245.334 124.147,245.536 124.094 C 245.738 124.042,245.572 123.998,245.168 123.998 C 244.764 123.998,244.598 124.042,244.800 124.094 M258.915 125.263 L 258.298 125.945 258.981 125.328 C 259.618 124.753,259.760 124.580,259.598 124.580 C 259.562 124.580,259.255 124.887,258.915 125.263 M183.823 128.739 L 183.927 131.828 183.987 128.903 C 184.019 127.295,183.972 125.905,183.882 125.814 C 183.792 125.724,183.765 127.040,183.823 128.739 M187.899 128.782 C 187.899 130.457,187.931 131.142,187.971 130.305 C 188.011 129.467,188.011 128.096,187.971 127.258 C 187.931 126.421,187.899 127.106,187.899 128.782 M211.123 130.410 L 210.399 131.197 211.187 130.473 C 211.920 129.800,212.071 129.622,211.911 129.622 C 211.876 129.622,211.521 129.976,211.123 130.410 M271.057 146.429 C 271.057 146.833,271.100 146.998,271.153 146.796 C 271.206 146.594,271.206 146.263,271.153 146.061 C 271.100 145.859,271.057 146.024,271.057 146.429 M129.041 147.794 C 129.041 148.141,129.113 148.708,129.202 149.055 C 129.424 149.928,129.434 149.068,129.214 148.004 C 129.068 147.298,129.040 147.264,129.041 147.794 M240.809 176.195 C 241.011 176.248,241.342 176.248,241.544 176.195 C 241.746 176.142,241.581 176.099,241.176 176.099 C 240.772 176.099,240.607 176.142,240.809 176.195 M162.338 176.412 C 162.711 176.459,163.372 176.459,163.808 176.414 C 164.244 176.368,163.939 176.330,163.130 176.329 C 162.321 176.329,161.965 176.366,162.338 176.412 M186.817 176.418 C 196.263 176.448,211.720 176.448,221.166 176.418 C 230.612 176.388,222.883 176.363,203.992 176.363 C 185.100 176.363,177.371 176.388,186.817 176.418 " stroke="none" fill="#c4c4e7" fill-rule="evenodd"></path><path id="path6" d="M167.492 77.042 C 167.812 77.090,168.284 77.089,168.543 77.039 C 168.801 76.989,168.540 76.949,167.962 76.951 C 167.384 76.952,167.173 76.993,167.492 77.042 M172.532 77.041 C 172.849 77.089,173.369 77.089,173.687 77.041 C 174.005 76.993,173.745 76.954,173.109 76.954 C 172.474 76.954,172.214 76.993,172.532 77.041 M137.500 77.458 C 142.216 77.607,146.381 77.612,146.291 77.468 C 146.238 77.382,143.812 77.331,140.901 77.355 C 137.991 77.379,136.460 77.425,137.500 77.458 M174.465 84.874 C 174.465 89.091,174.493 90.817,174.527 88.708 C 174.561 86.599,174.561 83.149,174.527 81.040 C 174.493 78.931,174.465 80.657,174.465 84.874 M155.725 82.498 C 155.927 82.551,156.258 82.551,156.460 82.498 C 156.662 82.445,156.497 82.402,156.092 82.402 C 155.688 82.402,155.523 82.445,155.725 82.498 M194.803 82.924 C 195.123 82.972,195.595 82.971,195.854 82.921 C 196.112 82.871,195.851 82.832,195.273 82.833 C 194.695 82.835,194.484 82.876,194.803 82.924 M216.754 82.921 C 217.014 82.971,217.440 82.971,217.700 82.921 C 217.960 82.871,217.747 82.830,217.227 82.830 C 216.707 82.830,216.494 82.871,216.754 82.921 M140.284 88.812 C 141.352 88.850,143.101 88.850,144.170 88.812 C 145.239 88.774,144.364 88.743,142.227 88.743 C 140.089 88.743,139.215 88.774,140.284 88.812 M179.262 91.071 C 179.263 91.649,179.304 91.861,179.352 91.541 C 179.401 91.222,179.399 90.749,179.350 90.491 C 179.300 90.232,179.260 90.494,179.262 91.071 M154.162 91.544 C 156.047 91.579,159.073 91.579,160.885 91.544 C 162.698 91.509,161.155 91.480,157.458 91.480 C 153.761 91.480,152.277 91.509,154.162 91.544 M174.015 125.577 C 175.842 125.612,178.773 125.612,180.528 125.577 C 182.283 125.542,180.788 125.513,177.206 125.514 C 173.624 125.514,172.188 125.542,174.015 125.577 M188.817 125.572 C 189.194 125.619,189.762 125.618,190.077 125.570 C 190.393 125.522,190.084 125.484,189.391 125.485 C 188.697 125.486,188.439 125.526,188.817 125.572 M184.432 132.206 C 184.525 132.299,185.206 132.345,185.946 132.309 L 187.290 132.243 185.776 132.140 C 184.944 132.084,184.339 132.114,184.432 132.206 M128.634 144.538 C 128.634 145.173,128.674 145.433,128.722 145.116 C 128.770 144.798,128.770 144.278,128.722 143.960 C 128.674 143.642,128.634 143.902,128.634 144.538 M128.830 146.429 C 128.830 146.833,128.873 146.998,128.926 146.796 C 128.979 146.594,128.979 146.263,128.926 146.061 C 128.873 145.859,128.830 146.024,128.830 146.429 M158.246 176.195 C 158.448 176.248,158.779 176.248,158.981 176.195 C 159.183 176.142,159.018 176.099,158.613 176.099 C 158.209 176.099,158.044 176.142,158.246 176.195 M160.032 176.409 C 160.291 176.459,160.717 176.459,160.977 176.409 C 161.237 176.359,161.024 176.318,160.504 176.318 C 159.984 176.318,159.772 176.359,160.032 176.409 " stroke="none" fill="#cdd1ec" fill-rule="evenodd"></path><path id="path7" d="M158.246 33.758 C 158.448 33.811,158.779 33.811,158.981 33.758 C 159.183 33.705,159.018 33.662,158.613 33.662 C 158.209 33.662,158.044 33.705,158.246 33.758 M241.019 33.758 C 241.221 33.811,241.552 33.811,241.754 33.758 C 241.956 33.705,241.791 33.662,241.387 33.662 C 240.982 33.662,240.817 33.705,241.019 33.758 M156.673 33.972 C 156.934 34.022,157.312 34.020,157.513 33.968 C 157.714 33.915,157.500 33.874,157.038 33.877 C 156.576 33.879,156.411 33.922,156.673 33.972 M242.542 33.928 C 243.077 34.109,244.781 34.183,244.514 34.014 C 244.354 33.913,243.797 33.836,243.277 33.843 C 242.757 33.851,242.426 33.889,242.542 33.928 M153.151 34.454 C 152.719 34.592,152.700 34.625,153.046 34.640 C 153.277 34.649,153.608 34.566,153.782 34.454 C 154.150 34.216,153.894 34.216,153.151 34.454 M136.543 44.065 L 135.819 44.853 136.607 44.129 C 137.340 43.455,137.492 43.277,137.331 43.277 C 137.296 43.277,136.942 43.632,136.543 44.065 M128.691 62.830 C 128.611 63.539,128.589 64.163,128.641 64.216 C 128.694 64.268,128.804 63.733,128.887 63.025 C 128.969 62.318,128.991 61.694,128.937 61.640 C 128.882 61.585,128.772 62.121,128.691 62.830 M271.267 63.655 C 271.267 64.060,271.310 64.225,271.363 64.023 C 271.416 63.821,271.416 63.490,271.363 63.288 C 271.310 63.086,271.267 63.251,271.267 63.655 M169.215 87.920 C 169.215 93.929,169.242 96.356,169.275 93.315 C 169.308 90.274,169.308 85.358,169.275 82.391 C 169.242 79.424,169.215 81.912,169.215 87.920 M171.946 87.920 C 171.946 93.929,171.973 96.356,172.006 93.315 C 172.039 90.274,172.039 85.358,172.006 82.391 C 171.973 79.424,171.946 81.912,171.946 87.920 M166.694 88.025 C 166.694 93.860,166.721 96.247,166.754 93.330 C 166.787 90.412,166.787 85.638,166.754 82.721 C 166.721 79.803,166.694 82.190,166.694 88.025 M135.396 88.445 L 135.399 99.055 136.503 99.073 L 137.607 99.091 136.558 99.009 L 135.508 98.928 135.451 88.382 L 135.393 77.836 135.396 88.445 M146.255 78.711 C 146.234 79.353,146.111 79.840,145.956 79.903 C 145.750 79.986,145.752 80.012,145.962 80.025 C 146.344 80.049,146.468 79.602,146.373 78.543 L 146.292 77.626 146.255 78.711 M137.955 80.182 C 137.761 80.376,137.778 85.877,137.973 85.997 C 138.059 86.051,138.130 84.733,138.130 83.068 C 138.130 81.404,138.122 80.042,138.113 80.042 C 138.103 80.042,138.032 80.105,137.955 80.182 M155.515 85.024 C 155.832 85.073,156.352 85.073,156.670 85.024 C 156.988 84.976,156.728 84.937,156.092 84.937 C 155.457 84.937,155.197 84.976,155.515 85.024 M184.509 85.025 C 184.829 85.073,185.301 85.072,185.560 85.022 C 185.818 84.972,185.557 84.932,184.979 84.934 C 184.401 84.936,184.190 84.976,184.509 85.025 M146.216 87.457 L 146.318 88.761 146.385 87.628 C 146.422 87.004,146.376 86.418,146.283 86.324 C 146.190 86.231,146.159 86.740,146.216 87.457 M224.046 87.237 C 223.991 87.382,223.970 93.409,224.000 100.630 L 224.055 113.761 224.160 100.368 C 224.217 93.002,224.238 86.975,224.206 86.975 C 224.173 86.975,224.101 87.093,224.046 87.237 M230.981 100.735 C 230.981 108.130,231.008 111.125,231.040 107.390 C 231.072 103.656,231.072 97.605,231.040 93.945 C 231.008 90.285,230.981 93.340,230.981 100.735 M161.345 88.733 C 161.345 89.061,160.920 89.085,156.112 89.030 C 153.235 88.997,150.924 89.041,150.978 89.128 C 151.191 89.472,161.348 89.311,161.482 88.962 C 161.551 88.783,161.548 88.578,161.476 88.506 C 161.403 88.434,161.345 88.536,161.345 88.733 M137.910 88.923 C 137.853 89.070,137.834 91.362,137.868 94.017 L 137.928 98.845 137.977 93.873 C 138.013 90.129,138.090 88.874,138.288 88.795 C 138.493 88.712,138.492 88.685,138.281 88.672 C 138.133 88.663,137.966 88.776,137.910 88.923 M193.345 90.966 C 193.345 91.717,193.383 92.025,193.429 91.649 C 193.476 91.274,193.476 90.659,193.429 90.284 C 193.383 89.908,193.345 90.215,193.345 90.966 M164.334 90.546 C 164.334 90.951,164.378 91.116,164.431 90.914 C 164.483 90.712,164.483 90.381,164.431 90.179 C 164.378 89.976,164.334 90.142,164.334 90.546 M190.821 91.071 C 190.823 91.765,190.862 92.023,190.909 91.645 C 190.955 91.268,190.954 90.701,190.906 90.385 C 190.858 90.069,190.820 90.378,190.821 91.071 M147.749 91.071 C 147.751 91.649,147.792 91.861,147.840 91.541 C 147.888 91.222,147.887 90.749,147.837 90.491 C 147.787 90.232,147.748 90.494,147.749 91.071 M174.454 95.483 C 174.454 97.216,174.487 97.897,174.526 96.997 C 174.566 96.096,174.565 94.678,174.526 93.845 C 174.486 93.013,174.453 93.750,174.454 95.483 M243.850 92.799 C 244.223 92.845,244.885 92.846,245.321 92.800 C 245.757 92.755,245.452 92.717,244.643 92.716 C 243.834 92.715,243.477 92.752,243.850 92.799 M249.265 93.277 C 249.496 93.377,249.827 93.458,250.000 93.458 C 250.199 93.458,250.160 93.391,249.895 93.277 C 249.664 93.178,249.333 93.097,249.160 93.097 C 248.961 93.097,249.000 93.164,249.265 93.277 M179.247 97.164 C 179.792 97.731,180.269 98.151,180.308 98.099 C 180.347 98.047,179.902 97.583,179.318 97.069 L 178.256 96.134 179.247 97.164 M150.210 97.136 C 150.614 97.575,151.134 98.033,151.366 98.155 C 151.597 98.277,151.738 98.332,151.681 98.279 C 150.337 97.029,149.542 96.411,150.210 97.136 M161.963 97.216 L 161.239 98.004 162.027 97.280 C 162.761 96.606,162.912 96.429,162.751 96.429 C 162.716 96.429,162.362 96.783,161.963 97.216 M190.848 97.111 L 190.231 97.794 190.914 97.177 C 191.289 96.838,191.597 96.530,191.597 96.494 C 191.597 96.332,191.423 96.475,190.848 97.111 M173.214 98.950 L 172.164 99.094 173.149 99.127 C 173.691 99.145,174.193 99.065,174.265 98.950 C 174.336 98.834,174.365 98.754,174.330 98.773 C 174.294 98.791,173.792 98.870,173.214 98.950 M167.492 99.100 C 167.812 99.149,168.284 99.147,168.543 99.097 C 168.801 99.048,168.540 99.008,167.962 99.010 C 167.384 99.011,167.173 99.052,167.492 99.100 M155.728 99.521 C 156.047 99.569,156.520 99.567,156.778 99.518 C 157.036 99.468,156.775 99.428,156.197 99.430 C 155.620 99.431,155.408 99.472,155.728 99.521 M184.716 99.515 C 184.919 99.567,185.249 99.567,185.452 99.515 C 185.654 99.462,185.488 99.418,185.084 99.418 C 184.680 99.418,184.514 99.462,184.716 99.515 M186.870 101.865 L 187.500 102.000 187.555 111.758 C 187.585 117.126,187.679 121.587,187.765 121.672 C 188.029 121.937,187.840 102.278,187.575 101.960 C 187.448 101.806,187.095 101.692,186.792 101.706 C 186.260 101.729,186.263 101.735,186.870 101.865 M238.655 102.626 C 239.047 103.030,239.415 103.361,239.473 103.361 C 239.531 103.361,239.258 103.030,238.866 102.626 C 238.474 102.222,238.106 101.891,238.048 101.891 C 237.990 101.891,238.263 102.222,238.655 102.626 M196.000 102.468 C 196.747 102.509,197.503 102.657,197.681 102.795 C 197.964 103.015,197.969 103.001,197.716 102.679 C 197.486 102.386,197.144 102.319,196.035 102.351 L 194.643 102.392 196.000 102.468 M211.712 102.463 C 212.088 102.510,212.702 102.510,213.078 102.463 C 213.453 102.416,213.146 102.378,212.395 102.378 C 211.644 102.378,211.337 102.416,211.712 102.463 M210.597 108.824 C 210.597 112.232,210.626 113.627,210.661 111.922 C 210.697 110.218,210.697 107.429,210.661 105.725 C 210.626 104.020,210.597 105.415,210.597 108.824 M194.215 112.920 C 194.215 118.466,194.242 120.705,194.275 117.895 C 194.308 115.085,194.308 110.547,194.275 107.811 C 194.242 105.075,194.215 107.374,194.215 112.920 M214.173 112.605 C 214.173 117.978,214.200 120.176,214.233 117.489 C 214.266 114.803,214.266 110.407,214.233 107.721 C 214.200 105.034,214.173 107.232,214.173 112.605 M253.782 103.007 C 253.782 103.043,254.089 103.350,254.464 103.690 L 255.147 104.307 254.530 103.624 C 253.955 102.988,253.782 102.845,253.782 103.007 M183.662 112.107 C 183.990 112.204,184.032 112.666,184.088 116.821 L 184.151 121.429 184.145 116.757 C 184.139 112.242,184.125 112.084,183.718 112.042 C 183.399 112.009,183.386 112.025,183.662 112.107 M238.761 112.185 C 238.179 112.333,238.171 112.347,238.655 112.367 C 238.944 112.379,239.322 112.297,239.496 112.185 C 239.853 111.954,239.669 111.954,238.761 112.185 M253.457 120.641 L 252.626 121.534 253.519 120.703 C 254.349 119.931,254.508 119.748,254.349 119.748 C 254.315 119.748,253.913 120.150,253.457 120.641 M234.454 120.864 C 234.454 120.900,234.761 121.207,235.137 121.547 L 235.819 122.164 235.202 121.481 C 234.627 120.845,234.454 120.702,234.454 120.864 M191.242 123.634 C 191.243 124.328,191.282 124.586,191.329 124.208 C 191.375 123.831,191.375 123.264,191.327 122.948 C 191.279 122.632,191.240 122.941,191.242 123.634 M210.347 123.634 C 210.349 124.097,210.392 124.261,210.443 124.000 C 210.493 123.738,210.491 123.360,210.438 123.159 C 210.386 122.958,210.345 123.172,210.347 123.634 M213.919 123.634 C 213.921 124.097,213.964 124.261,214.014 124.000 C 214.064 123.738,214.062 123.360,214.010 123.159 C 213.957 122.958,213.916 123.172,213.919 123.634 M194.381 124.475 C 194.383 124.937,194.426 125.101,194.476 124.840 C 194.527 124.579,194.525 124.201,194.472 124.000 C 194.419 123.799,194.378 124.013,194.381 124.475 M240.179 124.094 C 240.381 124.147,240.712 124.147,240.914 124.094 C 241.116 124.042,240.951 123.998,240.546 123.998 C 240.142 123.998,239.976 124.042,240.179 124.094 M242.700 124.313 C 243.133 124.358,243.842 124.358,244.275 124.313 C 244.709 124.267,244.354 124.230,243.487 124.230 C 242.621 124.230,242.266 124.267,242.700 124.313 M258.824 125.105 C 258.313 125.625,257.943 126.050,258.001 126.050 C 258.059 126.050,258.523 125.625,259.034 125.105 C 259.544 124.585,259.914 124.160,259.856 124.160 C 259.799 124.160,259.334 124.585,258.824 125.105 M187.697 125.693 C 187.640 125.843,187.622 127.285,187.658 128.897 L 187.723 131.828 187.769 128.746 C 187.802 126.514,187.887 125.636,188.078 125.559 C 188.283 125.476,188.282 125.450,188.071 125.437 C 187.923 125.428,187.755 125.543,187.697 125.693 M184.099 127.206 C 184.100 127.899,184.139 128.157,184.186 127.780 C 184.233 127.402,184.232 126.835,184.184 126.519 C 184.136 126.204,184.098 126.513,184.099 127.206 M198.950 126.956 C 198.950 126.993,199.257 127.300,199.632 127.639 L 200.315 128.256 199.698 127.574 C 199.123 126.937,198.950 126.794,198.950 126.956 M184.099 130.147 C 184.100 130.840,184.139 131.099,184.186 130.721 C 184.233 130.343,184.232 129.776,184.184 129.461 C 184.136 129.145,184.098 129.454,184.099 130.147 M211.123 130.200 L 210.399 130.987 211.187 130.263 C 211.620 129.865,211.975 129.511,211.975 129.476 C 211.975 129.315,211.797 129.466,211.123 130.200 M245.431 131.447 C 245.633 131.500,245.964 131.500,246.166 131.447 C 246.368 131.394,246.203 131.351,245.798 131.351 C 245.394 131.351,245.228 131.394,245.431 131.447 M242.174 131.665 C 242.550 131.711,243.164 131.711,243.540 131.665 C 243.915 131.618,243.608 131.580,242.857 131.580 C 242.106 131.580,241.799 131.618,242.174 131.665 M203.729 132.925 C 204.105 132.972,204.719 132.972,205.095 132.925 C 205.470 132.878,205.163 132.840,204.412 132.840 C 203.661 132.840,203.353 132.878,203.729 132.925 M128.575 146.236 C 128.576 146.631,128.664 147.091,128.770 147.258 C 128.895 147.455,128.921 147.232,128.843 146.628 C 128.695 145.468,128.570 145.286,128.575 146.236 M271.271 146.324 C 271.274 146.786,271.317 146.950,271.367 146.689 C 271.417 146.427,271.415 146.049,271.363 145.848 C 271.310 145.648,271.269 145.861,271.271 146.324 M271.046 148.145 C 271.025 148.684,270.954 149.298,270.887 149.510 C 270.774 149.871,270.781 149.872,271.004 149.526 C 271.135 149.322,271.206 148.708,271.163 148.160 L 271.084 147.164 271.046 148.145 M129.216 150.648 C 129.225 150.927,129.317 151.345,129.422 151.576 C 129.554 151.868,129.573 151.741,129.484 151.155 C 129.335 150.180,129.195 149.914,129.216 150.648 M129.750 153.151 C 129.822 153.556,129.965 154.028,130.069 154.202 C 130.293 154.575,130.078 153.486,129.800 152.836 C 129.678 152.553,129.662 152.655,129.750 153.151 M131.417 158.036 C 131.496 158.296,131.646 158.601,131.752 158.714 C 131.858 158.827,131.838 158.614,131.708 158.241 C 131.442 157.478,131.196 157.304,131.417 158.036 M135.915 165.284 C 136.306 165.775,136.663 166.176,136.709 166.176 C 136.858 166.176,135.957 164.994,135.575 164.687 C 135.372 164.524,135.525 164.793,135.915 165.284 M138.235 167.752 C 138.627 168.157,138.995 168.487,139.053 168.487 C 139.111 168.487,138.837 168.157,138.445 167.752 C 138.053 167.348,137.685 167.017,137.628 167.017 C 137.570 167.017,137.843 167.348,138.235 167.752 M260.806 168.540 L 260.189 169.223 260.872 168.606 C 261.508 168.030,261.651 167.857,261.489 167.857 C 261.453 167.857,261.145 168.164,260.806 168.540 M140.261 169.551 C 141.093 170.247,142.410 171.146,142.017 170.749 C 141.657 170.387,139.479 168.697,139.371 168.697 C 139.299 168.697,139.699 169.082,140.261 169.551 M148.950 174.334 C 149.123 174.441,149.501 174.592,149.790 174.669 C 150.155 174.767,150.219 174.751,150.000 174.615 C 149.827 174.508,149.449 174.357,149.160 174.280 C 148.795 174.182,148.731 174.199,148.950 174.334 M153.256 175.630 C 154.145 175.856,154.908 175.856,154.202 175.630 C 153.913 175.538,153.440 175.464,153.151 175.466 C 152.679 175.469,152.690 175.486,153.256 175.630 M155.987 176.040 C 156.635 176.216,158.122 176.322,157.966 176.182 C 157.918 176.138,157.311 176.050,156.618 175.986 C 155.789 175.909,155.573 175.927,155.987 176.040 M242.702 176.201 C 243.022 176.249,243.494 176.248,243.753 176.198 C 244.011 176.148,243.750 176.109,243.172 176.111 C 242.595 176.112,242.383 176.153,242.702 176.201 M158.563 176.409 C 158.825 176.459,159.203 176.457,159.404 176.405 C 159.605 176.352,159.391 176.311,158.929 176.313 C 158.466 176.316,158.302 176.359,158.563 176.409 M240.916 176.409 C 241.178 176.459,241.556 176.457,241.757 176.405 C 241.958 176.352,241.744 176.311,241.282 176.313 C 240.819 176.316,240.655 176.359,240.916 176.409 " stroke="none" fill="#dcdcf2" fill-rule="evenodd"></path><path id="path8" d="M146.477 87.395 C 146.477 87.799,146.521 87.965,146.573 87.763 C 146.626 87.560,146.626 87.230,146.573 87.027 C 146.521 86.825,146.477 86.991,146.477 87.395 M271.281 144.538 C 271.281 145.173,271.321 145.433,271.369 145.116 C 271.417 144.798,271.417 144.278,271.369 143.960 C 271.321 143.642,271.281 143.902,271.281 144.538 M165.818 176.416 C 166.602 176.457,167.831 176.457,168.549 176.416 C 169.266 176.375,168.624 176.342,167.122 176.342 C 165.620 176.342,165.033 176.376,165.818 176.416 M238.708 176.411 C 239.026 176.459,239.546 176.459,239.863 176.411 C 240.181 176.363,239.921 176.323,239.286 176.323 C 238.650 176.323,238.390 176.363,238.708 176.411 " stroke="none" fill="#c4cce4" fill-rule="evenodd"></path></g></svg>